<svg xmlns="http://www.w3.org/2000/svg" viewBox="-36.0 -36.0 72.0 72.0" role="img" aria-label="c_Reinforce">
<g><g transform="matrix(1 0 0 1 0 0)" opacity="1"><g transform="matrix(1 0 0 1 0 0)"><path d="M 33.650 -48.150 Q 35.000 -46.300 35.000 -44.050 L 35.000 44.100 Q 35.000 46.350 33.650 48.150 Q 32.250 50.000 30.500 50.000 L -30.450 50.000 Q -32.200 50.000 -33.600 48.150 Q -35.000 46.350 -35.000 44.100 L -35.000 -44.050 Q -35.000 -46.300 -33.600 -48.150 Q -32.200 -50.000 -30.450 -50.000 L 30.500 -50.000 Q 32.250 -50.000 33.650 -48.150 Z" fill="#47247d" fill-opacity="1" fill-rule="evenodd"/></g><g transform="matrix(1 0 0 1 0 0)"><path d="M 21.200 -21.250 Q 30.000 -12.450 30.050 0.000 Q 30.000 12.450 21.200 21.200 Q 12.450 30.000 0.050 30.000 Q -12.400 30.000 -21.200 21.200 Q -30.000 12.450 -29.950 0.000 Q -30.000 -12.450 -21.200 -21.250 Q -12.400 -30.000 0.050 -30.000 Q 12.450 -30.000 21.200 -21.250 Z" fill="#ffffff" fill-opacity="0.137" fill-rule="evenodd"/></g><g transform="matrix(1 0 0 1 0 0)"><path d="M 2.600 -7.700 L 16.800 -20.100 L 26.150 -22.700 L -8.700 11.500 Z" fill="#4d4d4d" fill-opacity="0.302" fill-rule="evenodd"/><path d="M -13.850 6.600 L -1.250 -4.400 L 2.600 -7.700 Z" fill="#4d4d4d" fill-opacity="0.302" fill-rule="evenodd"/><path d="M -8.750 11.450 L -13.850 6.600 Z" fill="#4d4d4d" fill-opacity="0.302" fill-rule="evenodd"/><path d="M 26.150 -22.700 L 26.300 -22.850 L 23.750 -13.650 L 9.750 1.750 L 6.300 5.550 L -3.500 16.400 L -8.750 11.550 L -8.800 11.500 L -8.800 11.500 Z" fill="#4d4d4d" fill-opacity="0.302" fill-rule="evenodd"/><path d="M -8.700 11.500 L 26.150 -22.700 Z" fill="#4d4d4d" fill-opacity="0.302" fill-rule="evenodd"/><path d="M 9.750 1.750 L 25.400 22.500 L 21.400 25.500 L 6.300 5.550 L 9.750 1.750 Z" fill="#595959" fill-opacity="0.302" fill-rule="evenodd"/><path d="M -1.250 -4.400 L -7.100 -12.100 L -7.050 -12.150 L -13.350 -20.550 L -13.400 -20.500 L -14.900 -22.500 L -10.900 -25.550 L 2.600 -7.700 L -1.250 -4.400 Z" fill="#595959" fill-opacity="0.302" fill-rule="evenodd"/><path d="M -3.500 16.400 L 2.250 21.900 L -1.350 24.600 L -10.000 17.300 L -20.100 26.300 L -22.300 24.700 L -22.250 24.650 L -8.800 11.500 L -8.750 11.550 L -3.500 16.400 Z" fill="#4d4d4d" fill-opacity="0.302" fill-rule="evenodd"/><path d="M -22.300 24.700 L -22.350 24.650 L -22.250 24.650 L -22.300 24.700 Z" fill="#000000" fill-opacity="1" fill-rule="evenodd"/><path d="M -22.250 24.650 L -23.950 22.500 L -14.750 12.700 L -22.400 4.550 L -19.750 1.100 L -13.850 6.600 L -8.750 11.450 Z" fill="#4d4d4d" fill-opacity="0.302" fill-rule="evenodd"/><path d="M -8.800 11.500 L -22.250 24.650 Z" fill="#4d4d4d" fill-opacity="0.302" fill-rule="evenodd"/><path d="M -7.100 -12.100 Q -8.850 -10.200 -10.800 -5.500 Q -13.250 0.450 -11.900 3.550 Q -15.900 4.350 -23.900 -4.400 Q -31.950 -13.200 -31.000 -15.650 Q -23.800 -13.600 -13.400 -20.500 L -13.350 -20.550 L -7.050 -12.150 L -7.100 -12.100 Z" fill="#4d4d4d" fill-opacity="0.302" fill-rule="evenodd"/><path d="M -8.800 11.500 L -8.800 11.500 Z" fill="#000000" fill-opacity="1" fill-rule="evenodd"/></g></g></g>
</svg>
