<svg xmlns="http://www.w3.org/2000/svg" viewBox="-36.0 -36.0 72.0 72.0" role="img" aria-label="m_Alien">
<g><g transform="matrix(1 0 0 1 0 0)" opacity="1"><g transform="matrix(1 0 0 1 0 0)"><path d="M 33.650 -48.150 Q 35.000 -46.300 35.000 -44.050 L 35.000 44.100 Q 35.000 46.350 33.650 48.150 Q 32.250 50.000 30.500 50.000 L -30.450 50.000 Q -32.200 50.000 -33.600 48.150 Q -35.000 46.350 -35.000 44.100 L -35.000 -44.050 Q -35.000 -46.300 -33.600 -48.150 Q -32.200 -50.000 -30.450 -50.000 L 30.500 -50.000 Q 32.250 -50.000 33.650 -48.150 Z" fill="#5599ff" fill-opacity="1" fill-rule="evenodd"/><path d="M 30.000 20.050 L 30.000 -32.750 L -30.000 -32.750 L -30.000 20.050 L 30.000 20.050 Z" fill="#5599ff" fill-opacity="1" fill-rule="evenodd"/></g><g transform="matrix(1 0 0 1 0 0)"><path d="M 30.000 -32.750 L 30.000 20.050 L -30.000 20.050 L -30.000 -32.750 L 30.000 -32.750 Z" fill="#bb7373" fill-opacity="1" fill-rule="evenodd"/></g><g transform="matrix(1 0 0 1 0 0)"><path d="M 0.600 -25.450 L 0.600 -25.450 L 1.200 -25.250 L 1.600 -25.050 L 1.500 -25.650 L 1.200 -26.150 Q 0.750 -26.750 0.200 -26.750 Q -0.400 -26.750 -0.800 -26.150 L -1.100 -25.650 L -1.250 -25.150 L -0.900 -25.300 L -0.350 -25.450 L 0.500 -25.450 Z" fill="#0f2d14" fill-opacity="1" fill-rule="evenodd"/><path d="M 0.600 -25.450 L 1.200 -25.250 L 1.600 -25.050 L 1.600 -24.750 L 1.800 -24.800 L 1.600 -24.250 L 1.800 -23.800 Q 2.000 -23.550 2.300 -23.550 Q 2.550 -23.550 2.800 -23.800 L 3.000 -24.250 L 2.800 -24.800 L 3.800 -24.400 L 3.800 -24.200 Q 3.800 -23.400 3.350 -22.850 Q 2.950 -22.300 2.400 -22.300 Q 1.800 -22.300 1.400 -22.850 L 1.100 -23.350 Q 0.700 -22.950 0.200 -22.900 Q -0.400 -22.950 -0.900 -23.500 L -1.150 -23.050 Q -1.550 -22.500 -2.150 -22.500 Q -2.750 -22.500 -3.150 -23.050 Q -3.600 -23.600 -3.600 -24.400 L -3.550 -24.700 L -2.750 -25.000 Z" fill="#ffffff" fill-opacity="1" fill-rule="evenodd"/><path d="M -1.250 -25.150 L -0.900 -25.300 L -0.350 -25.450 Z" fill="#ffffff" fill-opacity="1" fill-rule="evenodd"/><path d="M -0.400 -25.400 L -0.600 -24.900 L -0.400 -24.400 Q -0.200 -24.200 0.100 -24.200 L 0.600 -24.400 L 0.800 -24.900 L 0.600 -25.400 Z" fill="#ffffff" fill-opacity="1" fill-rule="evenodd"/><path d="M 1.600 -24.750 Q 1.600 -24.050 1.200 -23.500 L 1.100 -23.350 L 1.200 -23.500 Q 1.600 -24.050 1.600 -24.750 Z" fill="#ffffff" fill-opacity="1" fill-rule="evenodd"/><path d="M -2.750 -24.950 L -2.950 -24.450 L -2.750 -23.950 L -2.250 -23.750 L -1.750 -23.950 L -1.550 -24.450 L -1.800 -25.000 Z" fill="#ffffff" fill-opacity="1" fill-rule="evenodd"/><path d="M -1.750 -24.950 L -1.750 -25.000 L -1.250 -24.850 L -1.250 -25.150 Z" fill="#ffffff" fill-opacity="1" fill-rule="evenodd"/><path d="M -1.250 -24.850 L -1.250 -24.800 Q -1.250 -24.100 -0.800 -23.500 Q -1.250 -24.100 -1.250 -24.800 L -1.250 -24.850 Z" fill="#ffffff" fill-opacity="1" fill-rule="evenodd"/><path d="M -0.900 -23.550 L -0.900 -23.500 Z" fill="#ffffff" fill-opacity="1" fill-rule="evenodd"/><path d="M -12.450 -11.150 L -12.450 -11.150 Z" fill="#ffffff" fill-opacity="1" fill-rule="evenodd"/><path d="M 1.600 -25.050 L 1.500 -25.650 Q 1.850 -26.100 2.400 -26.100 Q 2.950 -26.100 3.350 -25.550 L 3.800 -24.400 L 2.800 -24.800 L 2.750 -24.850 L 1.850 -24.800 L 1.800 -24.800 L 1.600 -24.750 L 1.600 -25.050 Z" fill="#0f2d14" fill-opacity="1" fill-rule="evenodd"/><path d="M 1.500 -25.650 L 1.200 -26.150 Q 0.750 -26.750 0.200 -26.750 Q -0.400 -26.750 -0.800 -26.150 L -1.100 -25.650 L -1.150 -25.750 Q -1.550 -26.300 -2.150 -26.300 Q -2.750 -26.300 -3.150 -25.750 L -3.550 -24.700 L -3.600 -24.400 Q -3.600 -23.600 -3.150 -23.050 Q -2.750 -22.500 -2.150 -22.500 Q -1.550 -22.500 -1.150 -23.050 L -0.900 -23.500 Q -0.400 -22.950 0.200 -22.900 Q 0.700 -22.950 1.100 -23.350 L 1.400 -22.850 Q 1.800 -22.300 2.400 -22.300 Q 2.950 -22.300 3.350 -22.850 Q 3.800 -23.400 3.800 -24.200 L 3.800 -24.400 L 3.350 -25.550 Q 2.950 -26.100 2.400 -26.100 Q 1.850 -26.100 1.500 -25.650 Z" fill="#287938" fill-opacity="1" fill-rule="evenodd"/><path d="M -1.100 -17.450 L -1.250 -17.550 L -2.150 -18.600 L -3.050 -20.600 L -4.200 -23.650 Q -5.050 -25.750 -3.550 -27.450 Q -2.050 -29.150 0.200 -29.100 Q 2.500 -29.050 4.100 -27.750 Q 5.700 -26.400 5.200 -24.000 L 4.400 -20.600 L 3.500 -18.600 L 2.700 -17.650 L 2.250 -17.300 Q 1.500 -16.850 0.700 -16.850 Q -0.300 -16.850 -1.100 -17.450 Z" fill="#287938" fill-opacity="1" fill-rule="evenodd"/><path d="M 2.600 -19.600 Q 3.400 -19.750 2.600 -20.500 Q 0.450 -21.000 -1.550 -20.500 Q -2.300 -19.800 -1.550 -19.600 Q 0.450 -20.400 2.600 -19.600 Z" fill="#287938" fill-opacity="1" fill-rule="evenodd"/><path d="M -1.100 -25.650 L -1.250 -25.150 L -1.250 -24.850 L -1.750 -25.000 L -1.800 -25.000 L -2.700 -25.000 Z" fill="#0f2d14" fill-opacity="1" fill-rule="evenodd"/><path d="M -3.550 -24.700 L -3.150 -25.750 Q -2.750 -26.300 -2.150 -26.300 Q -1.550 -26.300 -1.150 -25.750 L -1.100 -25.650 Z" fill="#0f2d14" fill-opacity="1" fill-rule="evenodd"/><path d="M -2.750 -25.000 L -3.550 -24.700 Z" fill="#0f2d14" fill-opacity="1" fill-rule="evenodd"/><path d="M -0.350 -25.450 L 0.500 -25.450 Z" fill="#000000" fill-opacity="1" fill-rule="evenodd"/><path d="M 0.600 -25.400 L 0.800 -24.900 L 0.600 -24.400 L 0.100 -24.200 Q -0.200 -24.200 -0.400 -24.400 L -0.600 -24.900 L -0.400 -25.400 L -0.350 -25.450 Z" fill="#000000" fill-opacity="1" fill-rule="evenodd"/><path d="M 1.800 -24.800 L 1.850 -24.800 L 2.750 -24.850 L 2.800 -24.800 L 3.000 -24.250 L 2.800 -23.800 Q 2.550 -23.550 2.300 -23.550 Q 2.000 -23.550 1.800 -23.800 L 1.600 -24.250 L 1.800 -24.800 Z" fill="#000000" fill-opacity="1" fill-rule="evenodd"/><path d="M 2.600 -19.600 Q 0.450 -20.400 -1.550 -19.600 Q -2.300 -19.800 -1.550 -20.500 Q 0.450 -21.000 2.600 -20.500 Q 3.400 -19.750 2.600 -19.600 Z" fill="#000000" fill-opacity="1" fill-rule="evenodd"/><path d="M -2.750 -24.950 L -2.750 -24.950 L -2.950 -24.450 L -2.750 -23.950 L -2.250 -23.750 L -1.750 -23.950 L -1.550 -24.450 L -1.800 -25.000 L -2.700 -25.000 Z" fill="#000000" fill-opacity="1" fill-rule="evenodd"/><path d="M 2.250 -17.300 L 2.350 -16.450 L 2.300 -16.450 Q 0.550 -16.250 -1.050 -16.400 L -1.250 -16.450 L -1.100 -17.450 Q -0.300 -16.850 0.700 -16.850 Q 1.500 -16.850 2.250 -17.300 Z" fill="#287938" fill-opacity="1" fill-rule="evenodd"/><path d="M 2.350 -16.450 L 2.550 -16.500 L 2.650 -15.950 L 2.850 -15.300 L 2.850 -15.250 Q 0.150 -14.550 -1.700 -15.300 L -1.500 -15.950 L -1.400 -16.500 L -1.250 -16.450 L -1.050 -16.400 Q 0.550 -16.250 2.300 -16.450 L 2.350 -16.450 Z" fill="#cccccc" fill-opacity="1" fill-rule="evenodd"/><path d="M 10.850 -15.200 L 11.100 -15.700 L 11.450 -16.200 L 11.500 -16.200 Q 12.500 -15.850 13.200 -15.150 L 13.300 -15.050 L 13.000 -14.550 L 12.700 -14.050 L 10.900 -15.150 L 10.850 -15.200 Z" fill="#cccccc" fill-opacity="1" fill-rule="evenodd"/><path d="M 6.150 -4.300 L 6.350 -4.250 L 6.350 -3.350 L 6.350 -2.450 L 6.000 -2.500 Q 0.800 -2.900 -4.850 -2.500 L -5.100 -2.450 Q -5.300 -2.850 -5.100 -3.350 Q -5.400 -3.800 -5.100 -4.250 L -4.950 -4.300 Q 0.600 -5.000 6.150 -4.300 Z" fill="#cccccc" fill-opacity="1" fill-rule="evenodd"/><path d="M 8.950 4.300 L 9.450 4.150 L 9.950 5.100 L 10.450 6.000 L 10.900 6.950 Q 8.250 8.350 6.800 9.850 L 6.100 9.050 L 5.450 8.200 L 4.750 7.400 L 5.050 7.050 L 5.200 6.850 Q 6.650 5.000 8.950 4.300 Z" fill="#cccccc" fill-opacity="1" fill-rule="evenodd"/><path d="M 16.150 14.000 L 16.550 13.950 Q 17.800 13.950 18.700 14.700 Q 19.600 15.400 19.600 16.400 L 19.400 17.300 L 13.700 17.300 L 13.500 16.400 Q 13.500 15.400 14.400 14.700 Q 15.050 14.100 16.150 14.000 Z" fill="#cccccc" fill-opacity="1" fill-rule="evenodd"/><path d="M -5.900 4.850 L -5.350 5.050 L -5.450 6.100 L -5.550 7.150 L -5.650 8.150 Q -7.700 7.800 -10.700 8.150 L -10.850 7.150 L -10.950 6.100 L -11.050 5.350 L -11.050 5.050 L -10.350 4.800 Q -8.150 4.150 -5.900 4.850 Z" fill="#cccccc" fill-opacity="1" fill-rule="evenodd"/><path d="M -10.050 17.300 L -15.750 17.300 L -16.000 16.400 Q -15.950 15.350 -15.050 14.700 Q -14.200 13.950 -12.900 13.950 L -12.450 14.000 Q -11.650 14.050 -11.050 14.500 L -10.750 14.700 Q -9.850 15.400 -9.850 16.400 L -10.050 17.300 Z" fill="#cccccc" fill-opacity="1" fill-rule="evenodd"/><path d="M -12.500 -11.100 L -13.000 -11.350 L -13.550 -11.650 L -13.550 -11.750 Q -13.300 -12.700 -12.650 -13.600 L -12.600 -13.600 L -12.100 -13.350 L -11.550 -13.050 L -11.550 -13.100 Z" fill="#cccccc" fill-opacity="1" fill-rule="evenodd"/><path d="M 11.100 -15.700 Q 12.200 -15.250 13.000 -14.550 Q 12.200 -15.250 11.100 -15.700 Z" fill="#cccccc" fill-opacity="1" fill-rule="evenodd"/><path d="M 5.450 8.200 Q 7.300 6.100 9.950 5.100 Q 7.300 6.100 5.450 8.200 Z" fill="#cccccc" fill-opacity="1" fill-rule="evenodd"/><path d="M 10.450 6.000 Q 7.700 7.150 6.100 9.050 Q 7.700 7.150 10.450 6.000 Z" fill="#cccccc" fill-opacity="1" fill-rule="evenodd"/><path d="M -1.700 -15.250 L -1.700 -15.300 Z" fill="#cccccc" fill-opacity="1" fill-rule="evenodd"/><path d="M -11.550 -13.050 L -11.600 -13.000 L -12.450 -11.200 Z" fill="#cccccc" fill-opacity="1" fill-rule="evenodd"/><path d="M -12.500 -11.150 L -12.500 -11.100 Z" fill="#cccccc" fill-opacity="1" fill-rule="evenodd"/><path d="M -12.100 -13.350 Q -12.750 -12.400 -13.000 -11.350 Q -12.750 -12.400 -12.100 -13.350 Z" fill="#cccccc" fill-opacity="1" fill-rule="evenodd"/><path d="M -10.950 6.100 Q -8.250 5.350 -5.450 6.100 Q -8.250 5.350 -10.950 6.100 Z" fill="#cccccc" fill-opacity="1" fill-rule="evenodd"/><path d="M -10.850 7.150 Q -7.950 6.500 -5.550 7.150 Q -7.950 6.500 -10.850 7.150 Z" fill="#cccccc" fill-opacity="1" fill-rule="evenodd"/><path d="M -5.100 -3.350 Q 0.600 -4.000 6.350 -3.350 Q 0.600 -4.000 -5.100 -3.350 Z" fill="#cccccc" fill-opacity="1" fill-rule="evenodd"/><path d="M -1.500 -15.950 Q 0.650 -15.550 2.650 -15.950 Q 0.650 -15.550 -1.500 -15.950 Z" fill="#cccccc" fill-opacity="1" fill-rule="evenodd"/><path d="M 2.850 -15.300 L 4.350 -15.250 L 5.200 -14.900 L 7.100 -13.350 L 8.900 -11.900 L 9.800 -13.250 L 10.250 -14.000 L 10.400 -14.350 L 10.900 -15.150 L 12.700 -14.050 Z" fill="#e9e8e2" fill-opacity="1" fill-rule="evenodd"/><path d="M 12.600 -14.100 L 12.500 -13.800 L 12.050 -12.650 L 11.500 -11.650 L 10.500 -10.150 L 10.200 -9.600 L 8.450 -9.450 L 6.700 -10.150 Q 5.700 -10.600 4.500 -11.350 L 5.100 -8.800 Q 6.250 -7.450 6.200 -5.250 L 6.150 -4.300 Q 0.600 -5.000 -4.950 -4.300 L -5.250 -5.250 Q -5.400 -6.850 -3.850 -8.850 L -3.150 -12.050 L -4.350 -10.150 L -5.100 -9.150 Q -5.950 -8.250 -6.450 -8.600 L -12.450 -11.150 L -12.450 -11.150 Z" fill="#e9e8e2" fill-opacity="1" fill-rule="evenodd"/><path d="M -11.550 -13.050 L -6.600 -11.150 L -6.550 -11.200 L -5.650 -13.100 Q -5.150 -14.300 -4.300 -15.000 Q -3.700 -15.450 -3.450 -15.350 L -1.700 -15.300 Q 0.150 -14.550 2.850 -15.250 L 2.850 -15.300 Z" fill="#e9e8e2" fill-opacity="1" fill-rule="evenodd"/><path d="M -12.450 -11.200 L -11.600 -13.000 L -11.550 -13.050 Z" fill="#e9e8e2" fill-opacity="1" fill-rule="evenodd"/><path d="M 11.500 -16.200 L 11.300 -17.150 Q 11.150 -17.850 11.400 -18.300 L 12.250 -18.500 L 12.650 -18.650 L 12.600 -18.200 L 12.500 -17.900 L 12.750 -17.550 L 12.950 -17.500 Q 12.850 -17.150 13.150 -17.000 L 13.600 -17.000 Q 13.750 -16.450 14.500 -16.600 L 14.700 -16.200 L 13.200 -15.150 Q 12.500 -15.850 11.500 -16.200 Z" fill="#287938" fill-opacity="1" fill-rule="evenodd"/><path d="M 12.150 -16.850 L 12.500 -17.900 L 12.150 -16.850 Z" fill="#287938" fill-opacity="1" fill-rule="evenodd"/><path d="M 11.400 -18.300 Q 10.950 -18.300 10.650 -18.550 Q 10.250 -18.850 10.250 -19.400 L 10.250 -19.700 L 10.300 -20.100 L 10.500 -20.850 L 10.650 -21.150 Q 10.850 -21.700 11.350 -22.250 Q 12.200 -23.250 13.250 -23.650 L 13.800 -23.850 L 15.800 -25.650 L 15.650 -25.800 L 15.600 -26.150 L 15.900 -26.200 Q 15.800 -26.350 15.850 -26.450 L 16.050 -26.550 L 16.100 -26.750 L 16.300 -26.750 L 16.300 -27.050 L 16.650 -27.050 L 16.950 -26.900 L 17.050 -26.850 L 17.100 -26.800 L 17.900 -27.550 L 18.050 -27.450 L 17.450 -26.500 L 17.600 -26.400 L 17.750 -26.150 L 17.800 -25.800 L 17.550 -25.750 L 17.550 -25.500 L 17.350 -25.450 L 17.350 -25.250 L 17.050 -25.200 L 17.100 -24.950 L 16.700 -24.950 L 16.550 -24.950 L 15.250 -22.800 L 15.200 -22.050 Q 15.050 -21.300 14.550 -20.500 L 14.150 -19.900 L 13.550 -19.300 L 12.650 -18.650 L 12.250 -18.500 L 11.400 -18.300 Z" fill="#666666" fill-opacity="1" fill-rule="evenodd"/><path d="M 15.800 -17.250 L 16.250 -16.300 Q 15.700 -15.300 15.150 -15.400 L 14.700 -16.200 L 14.500 -16.600 L 15.150 -16.800 L 15.800 -17.250 Z" fill="#666666" fill-opacity="1" fill-rule="evenodd"/><path d="M -15.350 -11.850 L -15.300 -10.950 L -16.750 -11.050 L -16.800 -12.150 L -16.050 -12.100 L -15.400 -12.300 L -15.350 -11.850 Z" fill="#666666" fill-opacity="1" fill-rule="evenodd"/><path d="M -17.550 -15.550 L -18.950 -16.450 L -19.350 -17.100 L -21.650 -18.200 L -21.750 -18.100 L -22.050 -17.900 L -22.150 -18.100 L -22.450 -18.000 L -22.550 -18.200 Q -22.700 -18.100 -22.750 -18.100 L -22.900 -18.350 L -23.150 -18.250 L -23.250 -18.600 L -23.250 -18.850 L -23.250 -19.000 L -24.200 -19.500 L -24.150 -19.650 L -23.100 -19.500 L -23.050 -19.600 L -23.000 -19.600 L -22.850 -19.900 L -22.550 -20.050 L -22.400 -19.850 L -22.150 -19.950 L -22.050 -19.800 L -21.850 -19.850 L -21.700 -19.600 L -21.450 -19.700 L -21.350 -19.400 L -21.350 -19.200 L -18.700 -18.750 L -18.150 -18.900 L -15.750 -18.750 L -14.600 -18.150 L -14.350 -18.000 L -13.750 -17.500 L -13.500 -17.200 L -13.300 -16.950 Q -13.050 -16.450 -13.200 -15.950 L -13.700 -15.400 L -14.500 -15.050 L -14.950 -15.000 L -16.050 -15.050 L -16.900 -15.250 L -17.550 -15.550 Z" fill="#666666" fill-opacity="1" fill-rule="evenodd"/><path d="M 16.050 -26.550 L 16.150 -26.400 L 16.250 -26.200 L 16.600 -25.850 L 17.050 -25.550 L 17.200 -25.500 L 17.350 -25.450 L 17.200 -25.500 L 17.050 -25.550 L 16.600 -25.850 L 16.250 -26.200 L 16.150 -26.400 L 16.050 -26.550 Z" fill="#666666" fill-opacity="1" fill-rule="evenodd"/><path d="M 17.050 -25.200 L 16.850 -25.300 L 16.400 -25.600 L 16.050 -25.950 L 15.900 -26.200 L 16.050 -25.950 L 16.400 -25.600 L 16.850 -25.300 L 17.050 -25.200 Z" fill="#666666" fill-opacity="1" fill-rule="evenodd"/><path d="M 16.550 -24.950 L 16.150 -25.300 L 15.800 -25.650 L 16.150 -25.300 L 16.550 -24.950 Z" fill="#666666" fill-opacity="1" fill-rule="evenodd"/><path d="M 17.550 -25.750 L 17.300 -25.850 L 16.850 -26.150 L 16.500 -26.500 L 16.300 -26.750 L 16.500 -26.500 L 16.850 -26.150 L 17.300 -25.850 L 17.550 -25.750 Z" fill="#666666" fill-opacity="1" fill-rule="evenodd"/><path d="M 13.800 -23.850 L 14.800 -23.600 L 15.250 -22.800 L 14.800 -23.600 L 13.800 -23.850 Z" fill="#666666" fill-opacity="1" fill-rule="evenodd"/><path d="M 12.600 -21.900 L 12.200 -21.450 Q 12.600 -20.800 13.350 -20.500 L 13.750 -21.000 L 14.150 -21.450 Q 13.400 -21.750 13.000 -22.400 L 12.600 -21.900 Z" fill="#666666" fill-opacity="1" fill-rule="evenodd"/><path d="M -22.050 -19.800 L -22.050 -19.650 L -22.050 -19.400 L -22.150 -18.950 L -22.350 -18.450 L -22.450 -18.300 L -22.550 -18.200 L -22.450 -18.300 L -22.350 -18.450 L -22.150 -18.950 L -22.050 -19.400 L -22.050 -19.650 L -22.050 -19.800 Z" fill="#666666" fill-opacity="1" fill-rule="evenodd"/><path d="M -23.250 -19.000 L -22.650 -18.700 L -22.550 -19.050 L -22.400 -19.550 L -22.400 -19.750 L -22.400 -19.850 L -22.400 -19.750 L -22.400 -19.550 L -22.550 -19.050 L -22.650 -18.700 L -23.250 -19.000 Z" fill="#666666" fill-opacity="1" fill-rule="evenodd"/><path d="M -22.900 -18.350 L -22.750 -18.550 L -22.650 -18.700 L -22.750 -18.550 L -22.900 -18.350 Z" fill="#666666" fill-opacity="1" fill-rule="evenodd"/><path d="M -22.150 -18.100 L -22.050 -18.350 L -21.800 -18.850 L -21.700 -19.300 L -21.700 -19.600 L -21.700 -19.300 L -21.800 -18.850 L -22.050 -18.350 L -22.150 -18.100 Z" fill="#666666" fill-opacity="1" fill-rule="evenodd"/><path d="M -21.650 -18.200 L -21.450 -18.700 L -21.350 -19.200 L -21.450 -18.700 L -21.650 -18.200 Z" fill="#666666" fill-opacity="1" fill-rule="evenodd"/><path d="M -16.650 -17.750 L -17.250 -17.950 Q -17.300 -17.200 -17.700 -16.550 L -17.150 -16.350 L -16.500 -16.150 Q -16.050 -16.800 -16.050 -17.600 L -16.650 -17.750 Z" fill="#666666" fill-opacity="1" fill-rule="evenodd"/><path d="M -18.700 -18.750 L -19.450 -18.000 Q -19.600 -17.600 -19.350 -17.100 Q -19.600 -17.600 -19.450 -18.000 L -18.700 -18.750 Z" fill="#666666" fill-opacity="1" fill-rule="evenodd"/><path d="M 14.550 -20.500 L 14.700 -20.500 L 15.150 -20.400 L 15.500 -19.850 L 14.600 -18.850 Q 13.900 -18.300 13.600 -18.250 L 12.600 -18.200 L 12.650 -18.650 L 13.550 -19.300 L 14.150 -19.900 L 14.550 -20.500 Z" fill="#287938" fill-opacity="1" fill-rule="evenodd"/><path d="M 15.500 -19.850 Q 15.950 -19.350 15.850 -19.000 L 14.850 -18.050 Q 14.100 -17.650 12.950 -17.500 L 12.750 -17.550 L 12.500 -17.900 L 12.600 -18.200 L 13.600 -18.250 Q 13.900 -18.300 14.600 -18.850 L 15.500 -19.850 Z" fill="#287938" fill-opacity="1" fill-rule="evenodd"/><path d="M 15.850 -19.000 Q 16.050 -18.800 15.900 -18.100 Q 15.250 -17.350 13.600 -17.000 L 13.150 -17.000 Q 12.850 -17.150 12.950 -17.500 Q 14.100 -17.650 14.850 -18.050 L 15.850 -19.000 Z" fill="#287938" fill-opacity="1" fill-rule="evenodd"/><path d="M 15.900 -18.100 Q 16.100 -17.650 15.800 -17.250 L 15.150 -16.800 L 14.500 -16.600 Q 13.750 -16.450 13.600 -17.000 Q 15.250 -17.350 15.900 -18.100 Z" fill="#287938" fill-opacity="1" fill-rule="evenodd"/><path d="M 6.000 -2.500 Q 7.800 0.100 8.950 4.300 Q 6.650 5.000 5.200 6.850 L 5.050 7.050 L 3.300 4.500 L 1.750 2.950 Q 0.850 2.350 0.650 2.050 L -6.250 2.650 Q -5.900 3.250 -5.900 4.850 Q -8.150 4.150 -10.350 4.800 L -11.350 1.350 Q -12.050 -0.700 -10.550 -1.600 Q -9.100 -2.450 -6.600 -2.100 Q -4.150 -1.800 -4.850 -2.500 Q 0.800 -2.900 6.000 -2.500 Z" fill="#e9e8e2" fill-opacity="1" fill-rule="evenodd"/><path d="M 10.900 6.950 L 13.450 11.900 L 13.500 11.950 L 16.150 14.000 Q 15.050 14.100 14.400 14.700 Q 13.500 15.400 13.500 16.400 L 13.700 17.300 L 8.850 17.300 Q 7.950 16.400 8.500 14.200 L 8.700 12.600 Q 8.150 11.100 6.800 9.850 Q 8.250 8.350 10.900 6.950 Z" fill="#e9e8e2" fill-opacity="1" fill-rule="evenodd"/><path d="M 8.700 12.600 L 8.900 11.650 L 8.700 12.600 Z" fill="#e9e8e2" fill-opacity="1" fill-rule="evenodd"/><path d="M -5.650 8.150 L -5.950 10.350 L -5.900 11.600 L -4.850 14.200 Q -4.350 16.450 -5.200 17.300 L -10.050 17.300 L -9.850 16.400 Q -9.850 15.400 -10.750 14.700 L -11.050 14.500 Q -11.650 14.050 -12.450 14.000 L -10.300 11.850 L -10.700 8.150 Q -7.700 7.800 -5.650 8.150 Z" fill="#e9e8e2" fill-opacity="1" fill-rule="evenodd"/><path d="M -13.550 -11.750 L -15.350 -11.850 L -15.400 -12.300 Q -14.700 -12.550 -14.850 -13.100 L -14.500 -13.300 Q -14.350 -13.600 -14.550 -13.850 L -14.450 -14.000 L -14.450 -14.450 L -14.950 -15.000 L -14.500 -15.050 L -13.700 -15.400 Q -13.300 -15.150 -13.000 -14.500 L -12.650 -13.600 Q -13.300 -12.700 -13.550 -11.750 Z" fill="#287938" fill-opacity="1" fill-rule="evenodd"/><path d="M -14.450 -14.450 L -13.550 -13.750 L -14.450 -14.450 Z" fill="#287938" fill-opacity="1" fill-rule="evenodd"/><path d="M -16.800 -12.150 Q -17.350 -12.300 -17.400 -12.750 Q -16.450 -12.450 -14.850 -13.100 Q -14.700 -12.550 -15.400 -12.300 L -16.050 -12.100 L -16.800 -12.150 Z" fill="#287938" fill-opacity="1" fill-rule="evenodd"/><path d="M -17.400 -12.750 Q -17.900 -13.300 -17.800 -13.550 L -16.450 -13.300 L -14.550 -13.850 Q -14.350 -13.600 -14.500 -13.300 L -14.850 -13.100 Q -16.450 -12.450 -17.400 -12.750 Z" fill="#287938" fill-opacity="1" fill-rule="evenodd"/><path d="M -17.800 -13.550 Q -18.100 -13.800 -17.950 -14.500 L -16.700 -14.100 L -15.500 -14.150 L -14.650 -14.650 Z" fill="#287938" fill-opacity="1" fill-rule="evenodd"/><path d="M -14.550 -13.850 L -16.450 -13.300 L -17.800 -13.550 Z" fill="#287938" fill-opacity="1" fill-rule="evenodd"/><path d="M -14.450 -14.450 L -14.450 -14.000 L -14.550 -13.850 Z" fill="#287938" fill-opacity="1" fill-rule="evenodd"/><path d="M -17.950 -14.500 L -18.000 -15.150 L -17.650 -15.500 L -17.550 -15.550 L -16.900 -15.250 L -16.050 -15.050 L -14.950 -15.000 L -14.450 -14.450 Z" fill="#287938" fill-opacity="1" fill-rule="evenodd"/><path d="M -14.650 -14.650 L -15.500 -14.150 L -16.700 -14.100 L -17.950 -14.500 Z" fill="#287938" fill-opacity="1" fill-rule="evenodd"/><path d="M 13.750 -21.000 L 13.350 -20.500 Q 12.600 -20.800 12.200 -21.450 L 12.600 -21.900 Q 13.000 -21.300 13.750 -21.000 Z" fill="#ff0000" fill-opacity="1" fill-rule="evenodd"/><path d="M -17.150 -16.350 Q -16.700 -17.050 -16.650 -17.750 L -16.050 -17.600 Q -16.050 -16.800 -16.500 -16.150 L -17.150 -16.350 Z" fill="#ff0000" fill-opacity="1" fill-rule="evenodd"/><path d="M 12.600 -21.900 L 13.000 -22.400 Q 13.400 -21.750 14.150 -21.450 L 13.750 -21.000 Q 13.000 -21.300 12.600 -21.900 Z" fill="#ffff00" fill-opacity="1" fill-rule="evenodd"/><path d="M -17.150 -16.350 L -17.700 -16.550 Q -17.300 -17.200 -17.250 -17.950 L -16.650 -17.750 Q -16.700 -17.050 -17.150 -16.350 Z" fill="#ffff00" fill-opacity="1" fill-rule="evenodd"/><path d="M 0.600 -25.450 L 0.600 -25.450 L 1.200 -25.250 L 1.600 -25.050 L 1.500 -25.650 L 1.200 -26.150 Q 0.750 -26.750 0.200 -26.750 Q -0.400 -26.750 -0.800 -26.150 L -1.100 -25.650 L -1.250 -25.150 L -0.900 -25.300 L -0.350 -25.450 L 0.500 -25.450" fill="none" stroke="#000000" stroke-opacity="0.2" stroke-width="0.4" stroke-linecap="round" stroke-linejoin="round"/><path d="M 0.600 -25.450 L 1.200 -25.250 L 1.600 -25.050 L 1.600 -24.750 L 1.800 -24.800 L 1.600 -24.250 L 1.800 -23.800 Q 2.000 -23.550 2.300 -23.550 Q 2.550 -23.550 2.800 -23.800 L 3.000 -24.250 L 2.800 -24.800 L 3.800 -24.400 L 3.800 -24.200 Q 3.800 -23.400 3.350 -22.850 Q 2.950 -22.300 2.400 -22.300 Q 1.800 -22.300 1.400 -22.850 L 1.100 -23.350 Q 0.700 -22.950 0.200 -22.900 Q -0.400 -22.950 -0.900 -23.500 L -1.150 -23.050 Q -1.550 -22.500 -2.150 -22.500 Q -2.750 -22.500 -3.150 -23.050 Q -3.600 -23.600 -3.600 -24.400 L -3.550 -24.700 L -2.750 -25.000" fill="none" stroke="#000000" stroke-opacity="0.2" stroke-width="0.4" stroke-linecap="round" stroke-linejoin="round"/><path d="M 1.600 -25.050 L 1.500 -25.650 Q 1.850 -26.100 2.400 -26.100 Q 2.950 -26.100 3.350 -25.550 L 3.800 -24.400 L 2.800 -24.800 L 2.750 -24.850 L 1.850 -24.800 L 1.800 -24.800 L 1.600 -24.750 L 1.600 -25.050" fill="none" stroke="#000000" stroke-opacity="0.2" stroke-width="0.4" stroke-linecap="round" stroke-linejoin="round"/><path d="M 1.500 -25.650 L 1.200 -26.150 Q 0.750 -26.750 0.200 -26.750 Q -0.400 -26.750 -0.800 -26.150 L -1.100 -25.650 L -1.150 -25.750 Q -1.550 -26.300 -2.150 -26.300 Q -2.750 -26.300 -3.150 -25.750 L -3.550 -24.700 L -3.600 -24.400 Q -3.600 -23.600 -3.150 -23.050 Q -2.750 -22.500 -2.150 -22.500 Q -1.550 -22.500 -1.150 -23.050 L -0.900 -23.500 Q -0.400 -22.950 0.200 -22.900 Q 0.700 -22.950 1.100 -23.350 L 1.400 -22.850 Q 1.800 -22.300 2.400 -22.300 Q 2.950 -22.300 3.350 -22.850 Q 3.800 -23.400 3.800 -24.200 L 3.800 -24.400 L 3.350 -25.550 Q 2.950 -26.100 2.400 -26.100 Q 1.850 -26.100 1.500 -25.650" fill="none" stroke="#000000" stroke-opacity="0.2" stroke-width="0.4" stroke-linecap="round" stroke-linejoin="round"/><path d="M -1.100 -25.650 L -1.250 -25.150 L -1.250 -24.850 L -1.750 -25.000 L -1.800 -25.000 L -2.700 -25.000" fill="none" stroke="#000000" stroke-opacity="0.2" stroke-width="0.4" stroke-linecap="round" stroke-linejoin="round"/><path d="M -1.250 -25.150 L -0.900 -25.300 L -0.350 -25.450" fill="none" stroke="#000000" stroke-opacity="0.2" stroke-width="0.4" stroke-linecap="round" stroke-linejoin="round"/><path d="M -0.350 -25.450 L 0.500 -25.450" fill="none" stroke="#000000" stroke-opacity="0.2" stroke-width="0.4" stroke-linecap="round" stroke-linejoin="round"/><path d="M 0.600 -25.400 L 0.800 -24.900 L 0.600 -24.400 L 0.100 -24.200 Q -0.200 -24.200 -0.400 -24.400 L -0.600 -24.900 L -0.400 -25.400 L -0.350 -25.450" fill="none" stroke="#000000" stroke-opacity="0.2" stroke-width="0.4" stroke-linecap="round" stroke-linejoin="round"/><path d="M 3.800 -24.400 L 3.350 -25.550 Q 2.950 -26.100 2.400 -26.100 Q 1.850 -26.100 1.500 -25.650" fill="none" stroke="#000000" stroke-opacity="0.2" stroke-width="0.4" stroke-linecap="round" stroke-linejoin="round"/><path d="M 1.800 -24.800 L 1.850 -24.800 L 2.750 -24.850 L 2.800 -24.800 L 3.000 -24.250 L 2.800 -23.800 Q 2.550 -23.550 2.300 -23.550 Q 2.000 -23.550 1.800 -23.800 L 1.600 -24.250 L 1.800 -24.800" fill="none" stroke="#000000" stroke-opacity="0.2" stroke-width="0.4" stroke-linecap="round" stroke-linejoin="round"/><path d="M 2.800 -24.800 L 3.800 -24.400" fill="none" stroke="#000000" stroke-opacity="0.2" stroke-width="0.4" stroke-linecap="round" stroke-linejoin="round"/><path d="M 3.800 -24.400 L 3.800 -24.200 Q 3.800 -23.400 3.350 -22.850 Q 2.950 -22.300 2.400 -22.300 Q 1.800 -22.300 1.400 -22.850 L 1.100 -23.350 Q 0.700 -22.950 0.200 -22.900 Q -0.400 -22.950 -0.900 -23.500" fill="none" stroke="#000000" stroke-opacity="0.2" stroke-width="0.4" stroke-linecap="round" stroke-linejoin="round"/><path d="M -0.900 -23.500 L -1.150 -23.050 Q -1.550 -22.500 -2.150 -22.500 Q -2.750 -22.500 -3.150 -23.050 Q -3.600 -23.600 -3.600 -24.400 L -3.550 -24.700" fill="none" stroke="#000000" stroke-opacity="0.2" stroke-width="0.4" stroke-linecap="round" stroke-linejoin="round"/><path d="M -3.550 -24.700 L -3.150 -25.750 Q -2.750 -26.300 -2.150 -26.300 Q -1.550 -26.300 -1.150 -25.750 L -1.100 -25.650" fill="none" stroke="#000000" stroke-opacity="0.2" stroke-width="0.4" stroke-linecap="round" stroke-linejoin="round"/><path d="M 1.800 -24.800 L 1.600 -24.750" fill="none" stroke="#000000" stroke-opacity="0.2" stroke-width="0.4" stroke-linecap="round" stroke-linejoin="round"/><path d="M 1.600 -24.750 Q 1.600 -24.050 1.200 -23.500 L 1.100 -23.350 L 1.200 -23.500 Q 1.600 -24.050 1.600 -24.750" fill="none" stroke="#000000" stroke-opacity="0.2" stroke-width="0.4" stroke-linecap="round" stroke-linejoin="round"/><path d="M 1.600 -24.750 L 1.600 -25.050" fill="none" stroke="#000000" stroke-opacity="0.2" stroke-width="0.4" stroke-linecap="round" stroke-linejoin="round"/><path d="M -1.100 -17.450 L -1.250 -17.550 L -2.150 -18.600 L -3.050 -20.600 L -4.200 -23.650 Q -5.050 -25.750 -3.550 -27.450 Q -2.050 -29.150 0.200 -29.100 Q 2.500 -29.050 4.100 -27.750 Q 5.700 -26.400 5.200 -24.000 L 4.400 -20.600 L 3.500 -18.600 L 2.700 -17.650 L 2.250 -17.300 Q 1.500 -16.850 0.700 -16.850 Q -0.300 -16.850 -1.100 -17.450" fill="none" stroke="#000000" stroke-opacity="0.2" stroke-width="0.4" stroke-linecap="round" stroke-linejoin="round"/><path d="M 2.250 -17.300 L 2.350 -16.450 L 2.300 -16.450 Q 0.550 -16.250 -1.050 -16.400 L -1.250 -16.450 L -1.100 -17.450 Q -0.300 -16.850 0.700 -16.850 Q 1.500 -16.850 2.250 -17.300" fill="none" stroke="#000000" stroke-opacity="0.2" stroke-width="0.4" stroke-linecap="round" stroke-linejoin="round"/><path d="M 2.350 -16.450 L 2.550 -16.500 L 2.650 -15.950 L 2.850 -15.300 L 2.850 -15.250 Q 0.150 -14.550 -1.700 -15.300 L -1.500 -15.950 L -1.400 -16.500 L -1.250 -16.450 L -1.050 -16.400 Q 0.550 -16.250 2.300 -16.450 L 2.350 -16.450" fill="none" stroke="#000000" stroke-opacity="0.2" stroke-width="0.4" stroke-linecap="round" stroke-linejoin="round"/><path d="M 2.850 -15.300 L 4.350 -15.250 L 5.200 -14.900 L 7.100 -13.350 L 8.900 -11.900 L 9.800 -13.250 L 10.250 -14.000 L 10.400 -14.350 L 10.900 -15.150 L 12.700 -14.050" fill="none" stroke="#000000" stroke-opacity="0.2" stroke-width="0.4" stroke-linecap="round" stroke-linejoin="round"/><path d="M 10.900 -15.150 L 10.800 -15.200 L 10.850 -15.200" fill="none" stroke="#000000" stroke-opacity="0.2" stroke-width="0.4" stroke-linecap="round" stroke-linejoin="round"/><path d="M 10.850 -15.200 L 11.100 -15.700 L 11.450 -16.200 L 11.500 -16.200 Q 12.500 -15.850 13.200 -15.150 L 13.300 -15.050 L 13.000 -14.550 L 12.700 -14.050 L 10.900 -15.150 L 10.850 -15.200" fill="none" stroke="#000000" stroke-opacity="0.2" stroke-width="0.4" stroke-linecap="round" stroke-linejoin="round"/><path d="M 11.500 -16.200 L 11.300 -17.150 Q 11.150 -17.850 11.400 -18.300 L 12.250 -18.500 L 12.650 -18.650 L 12.600 -18.200 L 12.500 -17.900 L 12.750 -17.550 L 12.950 -17.500 Q 12.850 -17.150 13.150 -17.000 L 13.600 -17.000 Q 13.750 -16.450 14.500 -16.600 L 14.700 -16.200 L 13.200 -15.150 Q 12.500 -15.850 11.500 -16.200" fill="none" stroke="#000000" stroke-opacity="0.2" stroke-width="0.4" stroke-linecap="round" stroke-linejoin="round"/><path d="M 11.400 -18.300 Q 10.950 -18.300 10.650 -18.550 Q 10.250 -18.850 10.250 -19.400 L 10.250 -19.700 L 10.300 -20.100 L 10.500 -20.850 L 10.650 -21.150 Q 10.850 -21.700 11.350 -22.250 Q 12.200 -23.250 13.250 -23.650 L 13.800 -23.850 L 15.800 -25.650 L 15.650 -25.800 L 15.600 -26.150 L 15.900 -26.200 Q 15.800 -26.350 15.850 -26.450 L 16.050 -26.550 L 16.100 -26.750 L 16.300 -26.750 L 16.300 -27.050 L 16.650 -27.050 L 16.950 -26.900 L 17.050 -26.850 L 17.100 -26.800 L 17.900 -27.550 L 18.050 -27.450 L 17.450 -26.500 L 17.600 -26.400 L 17.750 -26.150 L 17.800 -25.800 L 17.550 -25.750 L 17.550 -25.500 L 17.350 -25.450 L 17.350 -25.250 L 17.050 -25.200 L 17.100 -24.950 L 16.700 -24.950 L 16.550 -24.950 L 15.250 -22.800 L 15.200 -22.050 Q 15.050 -21.300 14.550 -20.500 L 14.150 -19.900 L 13.550 -19.300 L 12.650 -18.650 L 12.250 -18.500 L 11.400 -18.300" fill="none" stroke="#000000" stroke-opacity="0.2" stroke-width="0.4" stroke-linecap="round" stroke-linejoin="round"/><path d="M 14.550 -20.500 L 14.700 -20.500 L 15.150 -20.400 L 15.500 -19.850 L 14.600 -18.850 Q 13.900 -18.300 13.600 -18.250 L 12.600 -18.200 L 12.650 -18.650 L 13.550 -19.300 L 14.150 -19.900 L 14.550 -20.500" fill="none" stroke="#000000" stroke-opacity="0.2" stroke-width="0.4" stroke-linecap="round" stroke-linejoin="round"/><path d="M 15.500 -19.850 Q 15.950 -19.350 15.850 -19.000 L 14.850 -18.050 Q 14.100 -17.650 12.950 -17.500 L 12.750 -17.550 L 12.500 -17.900 L 12.600 -18.200 L 13.600 -18.250 Q 13.900 -18.300 14.600 -18.850 L 15.500 -19.850" fill="none" stroke="#000000" stroke-opacity="0.2" stroke-width="0.4" stroke-linecap="round" stroke-linejoin="round"/><path d="M 15.850 -19.000 Q 16.050 -18.800 15.900 -18.100 Q 15.250 -17.350 13.600 -17.000 L 13.150 -17.000 Q 12.850 -17.150 12.950 -17.500 Q 14.100 -17.650 14.850 -18.050 L 15.850 -19.000" fill="none" stroke="#000000" stroke-opacity="0.2" stroke-width="0.4" stroke-linecap="round" stroke-linejoin="round"/><path d="M 15.900 -18.100 Q 16.100 -17.650 15.800 -17.250 L 15.150 -16.800 L 14.500 -16.600 Q 13.750 -16.450 13.600 -17.000 Q 15.250 -17.350 15.900 -18.100" fill="none" stroke="#000000" stroke-opacity="0.2" stroke-width="0.4" stroke-linecap="round" stroke-linejoin="round"/><path d="M 15.800 -17.250 L 16.250 -16.300 Q 15.700 -15.300 15.150 -15.400 L 14.700 -16.200 L 14.500 -16.600 L 15.150 -16.800 L 15.800 -17.250" fill="none" stroke="#000000" stroke-opacity="0.2" stroke-width="0.4" stroke-linecap="round" stroke-linejoin="round"/><path d="M 14.700 -16.200 L 13.200 -15.150" fill="none" stroke="#000000" stroke-opacity="0.2" stroke-width="0.4" stroke-linecap="round" stroke-linejoin="round"/><path d="M 13.200 -15.150 L 13.300 -15.050 L 13.000 -14.550 L 12.700 -14.050" fill="none" stroke="#000000" stroke-opacity="0.2" stroke-width="0.4" stroke-linecap="round" stroke-linejoin="round"/><path d="M 12.700 -14.050 L 12.700 -14.000 L 12.600 -14.100" fill="none" stroke="#000000" stroke-opacity="0.2" stroke-width="0.4" stroke-linecap="round" stroke-linejoin="round"/><path d="M 12.600 -14.100 L 12.500 -13.800 L 12.050 -12.650 L 11.500 -11.650 L 10.500 -10.150 L 10.200 -9.600 L 8.450 -9.450 L 6.700 -10.150 Q 5.700 -10.600 4.500 -11.350 L 5.100 -8.800 Q 6.250 -7.450 6.200 -5.250 L 6.150 -4.300 Q 0.600 -5.000 -4.950 -4.300 L -5.250 -5.250 Q -5.400 -6.850 -3.850 -8.850 L -3.150 -12.050 L -4.350 -10.150 L -5.100 -9.150 Q -5.950 -8.250 -6.450 -8.600 L -12.450 -11.150 L -12.450 -11.150" fill="none" stroke="#000000" stroke-opacity="0.2" stroke-width="0.4" stroke-linecap="round" stroke-linejoin="round"/><path d="M 6.150 -4.300 L 6.350 -4.250 L 6.350 -3.350 L 6.350 -2.450 L 6.000 -2.500 Q 0.800 -2.900 -4.850 -2.500 L -5.100 -2.450 Q -5.300 -2.850 -5.100 -3.350 Q -5.400 -3.800 -5.100 -4.250 L -4.950 -4.300 Q 0.600 -5.000 6.150 -4.300" fill="none" stroke="#000000" stroke-opacity="0.2" stroke-width="0.4" stroke-linecap="round" stroke-linejoin="round"/><path d="M 6.000 -2.500 Q 7.800 0.100 8.950 4.300 Q 6.650 5.000 5.200 6.850 L 5.050 7.050 L 3.300 4.500 L 1.750 2.950 Q 0.850 2.350 0.650 2.050 L -6.250 2.650 Q -5.900 3.250 -5.900 4.850 Q -8.150 4.150 -10.350 4.800 L -11.350 1.350 Q -12.050 -0.700 -10.550 -1.600 Q -9.100 -2.450 -6.600 -2.100 Q -4.150 -1.800 -4.850 -2.500 Q 0.800 -2.900 6.000 -2.500" fill="none" stroke="#000000" stroke-opacity="0.2" stroke-width="0.4" stroke-linecap="round" stroke-linejoin="round"/><path d="M 8.950 4.300 L 9.450 4.150 L 9.950 5.100 L 10.450 6.000 L 10.900 6.950 Q 8.250 8.350 6.800 9.850 L 6.100 9.050 L 5.450 8.200 L 4.750 7.400 L 5.050 7.050 L 5.200 6.850 Q 6.650 5.000 8.950 4.300" fill="none" stroke="#000000" stroke-opacity="0.2" stroke-width="0.4" stroke-linecap="round" stroke-linejoin="round"/><path d="M 10.900 6.950 L 13.450 11.900 L 13.500 11.950 L 16.150 14.000 Q 15.050 14.100 14.400 14.700 Q 13.500 15.400 13.500 16.400 L 13.700 17.300 L 8.850 17.300 Q 7.950 16.400 8.500 14.200 L 8.700 12.600 Q 8.150 11.100 6.800 9.850 Q 8.250 8.350 10.900 6.950" fill="none" stroke="#000000" stroke-opacity="0.2" stroke-width="0.4" stroke-linecap="round" stroke-linejoin="round"/><path d="M 16.150 14.000 L 16.550 13.950 Q 17.800 13.950 18.700 14.700 Q 19.600 15.400 19.600 16.400 L 19.400 17.300 L 13.700 17.300 L 13.500 16.400 Q 13.500 15.400 14.400 14.700 Q 15.050 14.100 16.150 14.000" fill="none" stroke="#000000" stroke-opacity="0.2" stroke-width="0.4" stroke-linecap="round" stroke-linejoin="round"/><path d="M 13.700 17.300 L 8.850 17.300 Q 7.950 16.400 8.500 14.200 L 8.700 12.600 Q 8.150 11.100 6.800 9.850" fill="none" stroke="#000000" stroke-opacity="0.2" stroke-width="0.4" stroke-linecap="round" stroke-linejoin="round"/><path d="M 6.800 9.850 L 6.100 9.050 L 5.450 8.200 L 4.750 7.400 L 5.050 7.050" fill="none" stroke="#000000" stroke-opacity="0.2" stroke-width="0.4" stroke-linecap="round" stroke-linejoin="round"/><path d="M 5.050 7.050 L 3.300 4.500 L 1.750 2.950 Q 0.850 2.350 0.650 2.050 L -6.250 2.650 Q -5.900 3.250 -5.900 4.850" fill="none" stroke="#000000" stroke-opacity="0.2" stroke-width="0.4" stroke-linecap="round" stroke-linejoin="round"/><path d="M -5.900 4.850 L -5.350 5.050 L -5.450 6.100 L -5.550 7.150 L -5.650 8.150 Q -7.700 7.800 -10.700 8.150 L -10.850 7.150 L -10.950 6.100 L -11.050 5.350 L -11.050 5.050 L -10.350 4.800 Q -8.150 4.150 -5.900 4.850" fill="none" stroke="#000000" stroke-opacity="0.2" stroke-width="0.4" stroke-linecap="round" stroke-linejoin="round"/><path d="M -5.650 8.150 L -5.950 10.350 L -5.900 11.600 L -4.850 14.200 Q -4.350 16.450 -5.200 17.300 L -10.050 17.300 L -9.850 16.400 Q -9.850 15.400 -10.750 14.700 L -11.050 14.500 Q -11.650 14.050 -12.450 14.000 L -10.300 11.850 L -10.700 8.150 Q -7.700 7.800 -5.650 8.150" fill="none" stroke="#000000" stroke-opacity="0.2" stroke-width="0.4" stroke-linecap="round" stroke-linejoin="round"/><path d="M -10.050 17.300 L -15.750 17.300 L -16.000 16.400 Q -15.950 15.350 -15.050 14.700 Q -14.200 13.950 -12.900 13.950 L -12.450 14.000 Q -11.650 14.050 -11.050 14.500 L -10.750 14.700 Q -9.850 15.400 -9.850 16.400 L -10.050 17.300" fill="none" stroke="#000000" stroke-opacity="0.2" stroke-width="0.4" stroke-linecap="round" stroke-linejoin="round"/><path d="M -12.450 14.000 L -10.300 11.850 L -10.700 8.150" fill="none" stroke="#000000" stroke-opacity="0.2" stroke-width="0.4" stroke-linecap="round" stroke-linejoin="round"/><path d="M -10.700 8.150 L -10.850 7.150 L -10.950 6.100 L -11.050 5.350" fill="none" stroke="#000000" stroke-opacity="0.2" stroke-width="0.4" stroke-linecap="round" stroke-linejoin="round"/><path d="M -11.050 5.050 L -10.350 4.800" fill="none" stroke="#000000" stroke-opacity="0.2" stroke-width="0.4" stroke-linecap="round" stroke-linejoin="round"/><path d="M -10.350 4.800 L -11.350 1.350 Q -12.050 -0.700 -10.550 -1.600 Q -9.100 -2.450 -6.600 -2.100 Q -4.150 -1.800 -4.850 -2.500" fill="none" stroke="#000000" stroke-opacity="0.2" stroke-width="0.4" stroke-linecap="round" stroke-linejoin="round"/><path d="M -4.850 -2.500 L -5.100 -2.450 Q -5.300 -2.850 -5.100 -3.350 Q -5.400 -3.800 -5.100 -4.250 L -4.950 -4.300" fill="none" stroke="#000000" stroke-opacity="0.2" stroke-width="0.4" stroke-linecap="round" stroke-linejoin="round"/><path d="M -4.950 -4.300 L -5.250 -5.250 Q -5.400 -6.850 -3.850 -8.850 L -3.150 -12.050 L -4.350 -10.150 L -5.100 -9.150 Q -5.950 -8.250 -6.450 -8.600 L -12.450 -11.150" fill="none" stroke="#000000" stroke-opacity="0.2" stroke-width="0.4" stroke-linecap="round" stroke-linejoin="round"/><path d="M -12.450 -11.150 L -12.500 -11.050 L -12.500 -11.100" fill="none" stroke="#000000" stroke-opacity="0.2" stroke-width="0.4" stroke-linecap="round" stroke-linejoin="round"/><path d="M -12.500 -11.100 L -13.000 -11.350 L -13.550 -11.650 L -13.550 -11.750 Q -13.300 -12.700 -12.650 -13.600 L -12.600 -13.600 L -12.100 -13.350 L -11.550 -13.050 L -11.550 -13.100" fill="none" stroke="#000000" stroke-opacity="0.2" stroke-width="0.4" stroke-linecap="round" stroke-linejoin="round"/><path d="M -13.550 -11.750 L -15.350 -11.850 L -15.400 -12.300 Q -14.700 -12.550 -14.850 -13.100 L -14.500 -13.300 Q -14.350 -13.600 -14.550 -13.850 L -14.450 -14.000 L -14.450 -14.450 L -14.950 -15.000 L -14.500 -15.050 L -13.700 -15.400 Q -13.300 -15.150 -13.000 -14.500 L -12.650 -13.600 Q -13.300 -12.700 -13.550 -11.750" fill="none" stroke="#000000" stroke-opacity="0.2" stroke-width="0.4" stroke-linecap="round" stroke-linejoin="round"/><path d="M -15.350 -11.850 L -15.300 -10.950 L -16.750 -11.050 L -16.800 -12.150 L -16.050 -12.100 L -15.400 -12.300 L -15.350 -11.850" fill="none" stroke="#000000" stroke-opacity="0.2" stroke-width="0.4" stroke-linecap="round" stroke-linejoin="round"/><path d="M -16.800 -12.150 Q -17.350 -12.300 -17.400 -12.750 Q -16.450 -12.450 -14.850 -13.100 Q -14.700 -12.550 -15.400 -12.300 L -16.050 -12.100 L -16.800 -12.150" fill="none" stroke="#000000" stroke-opacity="0.2" stroke-width="0.4" stroke-linecap="round" stroke-linejoin="round"/><path d="M -17.400 -12.750 Q -17.900 -13.300 -17.800 -13.550 L -16.450 -13.300 L -14.550 -13.850 Q -14.350 -13.600 -14.500 -13.300 L -14.850 -13.100 Q -16.450 -12.450 -17.400 -12.750" fill="none" stroke="#000000" stroke-opacity="0.2" stroke-width="0.4" stroke-linecap="round" stroke-linejoin="round"/><path d="M -17.800 -13.550 Q -18.100 -13.800 -17.950 -14.500 L -16.700 -14.100 L -15.500 -14.150 L -14.650 -14.650" fill="none" stroke="#000000" stroke-opacity="0.2" stroke-width="0.4" stroke-linecap="round" stroke-linejoin="round"/><path d="M -17.950 -14.500 L -18.000 -15.150 L -17.650 -15.500 L -17.550 -15.550 L -16.900 -15.250 L -16.050 -15.050 L -14.950 -15.000 L -14.450 -14.450" fill="none" stroke="#000000" stroke-opacity="0.2" stroke-width="0.4" stroke-linecap="round" stroke-linejoin="round"/><path d="M -17.550 -15.550 L -18.950 -16.450 L -19.350 -17.100 L -21.650 -18.200 L -21.750 -18.100 L -22.050 -17.900 L -22.150 -18.100 L -22.450 -18.000 L -22.550 -18.200 Q -22.700 -18.100 -22.750 -18.100 L -22.900 -18.350 L -23.150 -18.250 L -23.250 -18.600 L -23.250 -18.850 L -23.250 -19.000 L -24.200 -19.500 L -24.150 -19.650 L -23.100 -19.500 L -23.050 -19.600 L -23.000 -19.600 L -22.850 -19.900 L -22.550 -20.050 L -22.400 -19.850 L -22.150 -19.950 L -22.050 -19.800 L -21.850 -19.850 L -21.700 -19.600 L -21.450 -19.700 L -21.350 -19.400 L -21.350 -19.200 L -18.700 -18.750 L -18.150 -18.900 L -15.750 -18.750 L -14.600 -18.150 L -14.350 -18.000 L -13.750 -17.500 L -13.500 -17.200 L -13.300 -16.950 Q -13.050 -16.450 -13.200 -15.950 L -13.700 -15.400 L -14.500 -15.050 L -14.950 -15.000 L -16.050 -15.050 L -16.900 -15.250 L -17.550 -15.550" fill="none" stroke="#000000" stroke-opacity="0.2" stroke-width="0.4" stroke-linecap="round" stroke-linejoin="round"/><path d="M -13.700 -15.400 Q -13.300 -15.150 -13.000 -14.500 L -12.650 -13.600" fill="none" stroke="#000000" stroke-opacity="0.2" stroke-width="0.4" stroke-linecap="round" stroke-linejoin="round"/><path d="M -12.650 -13.600 L -12.600 -13.600 L -12.100 -13.350 L -11.550 -13.050" fill="none" stroke="#000000" stroke-opacity="0.2" stroke-width="0.4" stroke-linecap="round" stroke-linejoin="round"/><path d="M -11.550 -13.050 L -6.600 -11.150 L -6.550 -11.200 L -5.650 -13.100 Q -5.150 -14.300 -4.300 -15.000 Q -3.700 -15.450 -3.450 -15.350 L -1.700 -15.300 Q 0.150 -14.550 2.850 -15.250 L 2.850 -15.300" fill="none" stroke="#000000" stroke-opacity="0.2" stroke-width="0.4" stroke-linecap="round" stroke-linejoin="round"/><path d="M -1.700 -15.300 L -1.500 -15.950 L -1.400 -16.500 L -1.250 -16.450" fill="none" stroke="#000000" stroke-opacity="0.2" stroke-width="0.4" stroke-linecap="round" stroke-linejoin="round"/><path d="M -1.250 -16.450 L -1.100 -17.450" fill="none" stroke="#000000" stroke-opacity="0.2" stroke-width="0.4" stroke-linecap="round" stroke-linejoin="round"/><path d="M -1.100 -17.450 Q -0.300 -16.850 0.700 -16.850 Q 1.500 -16.850 2.250 -17.300" fill="none" stroke="#000000" stroke-opacity="0.2" stroke-width="0.4" stroke-linecap="round" stroke-linejoin="round"/><path d="M 16.050 -26.550 L 16.150 -26.400 L 16.250 -26.200 L 16.600 -25.850 L 17.050 -25.550 L 17.200 -25.500 L 17.350 -25.450 L 17.200 -25.500 L 17.050 -25.550 L 16.600 -25.850 L 16.250 -26.200 L 16.150 -26.400 L 16.050 -26.550" fill="none" stroke="#000000" stroke-opacity="0.2" stroke-width="0.4" stroke-linecap="round" stroke-linejoin="round"/><path d="M 17.050 -25.200 L 16.850 -25.300 L 16.400 -25.600 L 16.050 -25.950 L 15.900 -26.200 L 16.050 -25.950 L 16.400 -25.600 L 16.850 -25.300 L 17.050 -25.200" fill="none" stroke="#000000" stroke-opacity="0.2" stroke-width="0.4" stroke-linecap="round" stroke-linejoin="round"/><path d="M 16.550 -24.950 L 16.150 -25.300 L 15.800 -25.650 L 16.150 -25.300 L 16.550 -24.950" fill="none" stroke="#000000" stroke-opacity="0.2" stroke-width="0.4" stroke-linecap="round" stroke-linejoin="round"/><path d="M 17.550 -25.750 L 17.300 -25.850 L 16.850 -26.150 L 16.500 -26.500 L 16.300 -26.750 L 16.500 -26.500 L 16.850 -26.150 L 17.300 -25.850 L 17.550 -25.750" fill="none" stroke="#000000" stroke-opacity="0.2" stroke-width="0.4" stroke-linecap="round" stroke-linejoin="round"/><path d="M 13.800 -23.850 L 14.800 -23.600 L 15.250 -22.800 L 14.800 -23.600 L 13.800 -23.850" fill="none" stroke="#000000" stroke-opacity="0.2" stroke-width="0.4" stroke-linecap="round" stroke-linejoin="round"/><path d="M 13.750 -21.000 L 13.350 -20.500 Q 12.600 -20.800 12.200 -21.450 L 12.600 -21.900 Q 13.000 -21.300 13.750 -21.000" fill="none" stroke="#000000" stroke-opacity="0.2" stroke-width="0.4" stroke-linecap="round" stroke-linejoin="round"/><path d="M 12.600 -21.900 L 13.000 -22.400 Q 13.400 -21.750 14.150 -21.450 L 13.750 -21.000 Q 13.000 -21.300 12.600 -21.900" fill="none" stroke="#000000" stroke-opacity="0.2" stroke-width="0.4" stroke-linecap="round" stroke-linejoin="round"/><path d="M 13.750 -21.000 Q 13.000 -21.300 12.600 -21.900" fill="none" stroke="#000000" stroke-opacity="0.2" stroke-width="0.4" stroke-linecap="round" stroke-linejoin="round"/><path d="M 14.550 -20.500 L 14.150 -19.900 L 13.550 -19.300 L 12.650 -18.650" fill="none" stroke="#000000" stroke-opacity="0.2" stroke-width="0.4" stroke-linecap="round" stroke-linejoin="round"/><path d="M 12.650 -18.650 L 12.600 -18.200" fill="none" stroke="#000000" stroke-opacity="0.2" stroke-width="0.4" stroke-linecap="round" stroke-linejoin="round"/><path d="M 12.600 -18.200 L 13.600 -18.250 Q 13.900 -18.300 14.600 -18.850 L 15.500 -19.850" fill="none" stroke="#000000" stroke-opacity="0.2" stroke-width="0.4" stroke-linecap="round" stroke-linejoin="round"/><path d="M 14.500 -16.600 L 14.700 -16.200" fill="none" stroke="#000000" stroke-opacity="0.2" stroke-width="0.4" stroke-linecap="round" stroke-linejoin="round"/><path d="M 13.600 -17.000 Q 13.750 -16.450 14.500 -16.600" fill="none" stroke="#000000" stroke-opacity="0.2" stroke-width="0.4" stroke-linecap="round" stroke-linejoin="round"/><path d="M 14.500 -16.600 L 15.150 -16.800 L 15.800 -17.250" fill="none" stroke="#000000" stroke-opacity="0.2" stroke-width="0.4" stroke-linecap="round" stroke-linejoin="round"/><path d="M 12.950 -17.500 Q 12.850 -17.150 13.150 -17.000 L 13.600 -17.000" fill="none" stroke="#000000" stroke-opacity="0.2" stroke-width="0.4" stroke-linecap="round" stroke-linejoin="round"/><path d="M 13.600 -17.000 Q 15.250 -17.350 15.900 -18.100" fill="none" stroke="#000000" stroke-opacity="0.2" stroke-width="0.4" stroke-linecap="round" stroke-linejoin="round"/><path d="M 12.950 -17.500 Q 14.100 -17.650 14.850 -18.050 L 15.850 -19.000" fill="none" stroke="#000000" stroke-opacity="0.2" stroke-width="0.4" stroke-linecap="round" stroke-linejoin="round"/><path d="M 12.600 -18.200 L 12.500 -17.900 L 12.750 -17.550 L 12.950 -17.500" fill="none" stroke="#000000" stroke-opacity="0.2" stroke-width="0.4" stroke-linecap="round" stroke-linejoin="round"/><path d="M 12.650 -18.650 L 12.250 -18.500 L 11.400 -18.300" fill="none" stroke="#000000" stroke-opacity="0.2" stroke-width="0.4" stroke-linecap="round" stroke-linejoin="round"/><path d="M 12.150 -16.850 L 12.500 -17.900 L 12.150 -16.850" fill="none" stroke="#000000" stroke-opacity="0.2" stroke-width="0.4" stroke-linecap="round" stroke-linejoin="round"/><path d="M 10.900 -15.150 L 12.700 -14.050" fill="none" stroke="#000000" stroke-opacity="0.2" stroke-width="0.4" stroke-linecap="round" stroke-linejoin="round"/><path d="M 11.500 -16.200 Q 12.500 -15.850 13.200 -15.150" fill="none" stroke="#000000" stroke-opacity="0.2" stroke-width="0.4" stroke-linecap="round" stroke-linejoin="round"/><path d="M 11.100 -15.700 Q 12.200 -15.250 13.000 -14.550 Q 12.200 -15.250 11.100 -15.700" fill="none" stroke="#000000" stroke-opacity="0.2" stroke-width="0.4" stroke-linecap="round" stroke-linejoin="round"/><path d="M 2.800 -24.800 L 3.000 -24.250 L 2.800 -23.800 Q 2.550 -23.550 2.300 -23.550 Q 2.000 -23.550 1.800 -23.800 L 1.600 -24.250 L 1.800 -24.800" fill="none" stroke="#000000" stroke-opacity="0.2" stroke-width="0.4" stroke-linecap="round" stroke-linejoin="round"/><path d="M 2.600 -19.600 Q 0.450 -20.400 -1.550 -19.600 Q -2.300 -19.800 -1.550 -20.500 Q 0.450 -21.000 2.600 -20.500 Q 3.400 -19.750 2.600 -19.600" fill="none" stroke="#000000" stroke-opacity="0.2" stroke-width="0.4" stroke-linecap="round" stroke-linejoin="round"/><path d="M -1.250 -16.450 L -1.050 -16.400 Q 0.550 -16.250 2.300 -16.450 L 2.350 -16.450" fill="none" stroke="#000000" stroke-opacity="0.2" stroke-width="0.4" stroke-linecap="round" stroke-linejoin="round"/><path d="M 2.850 -15.300 L 2.850 -15.250 Q 0.150 -14.550 -1.700 -15.300" fill="none" stroke="#000000" stroke-opacity="0.2" stroke-width="0.4" stroke-linecap="round" stroke-linejoin="round"/><path d="M -4.850 -2.500 Q 0.800 -2.900 6.000 -2.500" fill="none" stroke="#000000" stroke-opacity="0.2" stroke-width="0.4" stroke-linecap="round" stroke-linejoin="round"/><path d="M 5.050 7.050 L 5.200 6.850 Q 6.650 5.000 8.950 4.300" fill="none" stroke="#000000" stroke-opacity="0.2" stroke-width="0.4" stroke-linecap="round" stroke-linejoin="round"/><path d="M 5.450 8.200 Q 7.300 6.100 9.950 5.100 Q 7.300 6.100 5.450 8.200" fill="none" stroke="#000000" stroke-opacity="0.2" stroke-width="0.4" stroke-linecap="round" stroke-linejoin="round"/><path d="M 16.150 14.000 Q 15.050 14.100 14.400 14.700 Q 13.500 15.400 13.500 16.400 L 13.700 17.300" fill="none" stroke="#000000" stroke-opacity="0.2" stroke-width="0.4" stroke-linecap="round" stroke-linejoin="round"/><path d="M 8.700 12.600 L 8.900 11.650 L 8.700 12.600" fill="none" stroke="#000000" stroke-opacity="0.2" stroke-width="0.4" stroke-linecap="round" stroke-linejoin="round"/><path d="M 10.450 6.000 Q 7.700 7.150 6.100 9.050 Q 7.700 7.150 10.450 6.000" fill="none" stroke="#000000" stroke-opacity="0.2" stroke-width="0.4" stroke-linecap="round" stroke-linejoin="round"/><path d="M 10.900 6.950 Q 8.250 8.350 6.800 9.850" fill="none" stroke="#000000" stroke-opacity="0.2" stroke-width="0.4" stroke-linecap="round" stroke-linejoin="round"/><path d="M -2.750 -24.950 L -2.750 -24.950 L -2.950 -24.450 L -2.750 -23.950 L -2.250 -23.750 L -1.750 -23.950 L -1.550 -24.450 L -1.800 -25.000 L -2.700 -25.000" fill="none" stroke="#000000" stroke-opacity="0.2" stroke-width="0.4" stroke-linecap="round" stroke-linejoin="round"/><path d="M -2.750 -24.950 L -2.950 -24.450 L -2.750 -23.950 L -2.250 -23.750 L -1.750 -23.950 L -1.550 -24.450 L -1.800 -25.000" fill="none" stroke="#000000" stroke-opacity="0.2" stroke-width="0.4" stroke-linecap="round" stroke-linejoin="round"/><path d="M -1.800 -25.000 L -2.700 -25.000" fill="none" stroke="#000000" stroke-opacity="0.2" stroke-width="0.4" stroke-linecap="round" stroke-linejoin="round"/><path d="M -1.750 -25.000 L -1.800 -25.000" fill="none" stroke="#000000" stroke-opacity="0.2" stroke-width="0.4" stroke-linecap="round" stroke-linejoin="round"/><path d="M -1.750 -25.000 L -1.250 -24.850 L -1.250 -25.150" fill="none" stroke="#000000" stroke-opacity="0.2" stroke-width="0.4" stroke-linecap="round" stroke-linejoin="round"/><path d="M -1.250 -24.850 L -1.250 -24.800 Q -1.250 -24.100 -0.800 -23.500 Q -1.250 -24.100 -1.250 -24.800 L -1.250 -24.850" fill="none" stroke="#000000" stroke-opacity="0.2" stroke-width="0.4" stroke-linecap="round" stroke-linejoin="round"/><path d="M -0.400 -25.400 L -0.350 -25.450" fill="none" stroke="#000000" stroke-opacity="0.2" stroke-width="0.4" stroke-linecap="round" stroke-linejoin="round"/><path d="M -22.050 -19.800 L -22.050 -19.650 L -22.050 -19.400 L -22.150 -18.950 L -22.350 -18.450 L -22.450 -18.300 L -22.550 -18.200 L -22.450 -18.300 L -22.350 -18.450 L -22.150 -18.950 L -22.050 -19.400 L -22.050 -19.650 L -22.050 -19.800" fill="none" stroke="#000000" stroke-opacity="0.2" stroke-width="0.4" stroke-linecap="round" stroke-linejoin="round"/><path d="M -23.250 -19.000 L -22.650 -18.700 L -22.550 -19.050 L -22.400 -19.550 L -22.400 -19.750 L -22.400 -19.850 L -22.400 -19.750 L -22.400 -19.550 L -22.550 -19.050 L -22.650 -18.700 L -23.250 -19.000" fill="none" stroke="#000000" stroke-opacity="0.2" stroke-width="0.4" stroke-linecap="round" stroke-linejoin="round"/><path d="M -22.900 -18.350 L -22.750 -18.550 L -22.650 -18.700 L -22.750 -18.550 L -22.900 -18.350" fill="none" stroke="#000000" stroke-opacity="0.2" stroke-width="0.4" stroke-linecap="round" stroke-linejoin="round"/><path d="M -22.150 -18.100 L -22.050 -18.350 L -21.800 -18.850 L -21.700 -19.300 L -21.700 -19.600 L -21.700 -19.300 L -21.800 -18.850 L -22.050 -18.350 L -22.150 -18.100" fill="none" stroke="#000000" stroke-opacity="0.2" stroke-width="0.4" stroke-linecap="round" stroke-linejoin="round"/><path d="M -21.650 -18.200 L -21.450 -18.700 L -21.350 -19.200 L -21.450 -18.700 L -21.650 -18.200" fill="none" stroke="#000000" stroke-opacity="0.2" stroke-width="0.4" stroke-linecap="round" stroke-linejoin="round"/><path d="M -0.900 -23.500 L -0.900 -23.550" fill="none" stroke="#000000" stroke-opacity="0.2" stroke-width="0.4" stroke-linecap="round" stroke-linejoin="round"/><path d="M -1.700 -15.250 L -1.700 -15.300" fill="none" stroke="#000000" stroke-opacity="0.2" stroke-width="0.4" stroke-linecap="round" stroke-linejoin="round"/><path d="M -16.650 -17.750 L -17.250 -17.950 Q -17.300 -17.200 -17.700 -16.550 L -17.150 -16.350 L -16.500 -16.150 Q -16.050 -16.800 -16.050 -17.600 L -16.650 -17.750" fill="none" stroke="#000000" stroke-opacity="0.2" stroke-width="0.4" stroke-linecap="round" stroke-linejoin="round"/><path d="M -17.150 -16.350 Q -16.700 -17.050 -16.650 -17.750 L -16.050 -17.600 Q -16.050 -16.800 -16.500 -16.150 L -17.150 -16.350" fill="none" stroke="#000000" stroke-opacity="0.2" stroke-width="0.4" stroke-linecap="round" stroke-linejoin="round"/><path d="M -16.650 -17.750 L -16.050 -17.600 Q -16.050 -16.800 -16.500 -16.150 L -17.150 -16.350" fill="none" stroke="#000000" stroke-opacity="0.2" stroke-width="0.4" stroke-linecap="round" stroke-linejoin="round"/><path d="M -18.700 -18.750 L -19.450 -18.000 Q -19.600 -17.600 -19.350 -17.100 Q -19.600 -17.600 -19.450 -18.000 L -18.700 -18.750" fill="none" stroke="#000000" stroke-opacity="0.2" stroke-width="0.4" stroke-linecap="round" stroke-linejoin="round"/><path d="M -14.650 -14.650 L -15.500 -14.150 L -16.700 -14.100 L -17.950 -14.500" fill="none" stroke="#000000" stroke-opacity="0.2" stroke-width="0.4" stroke-linecap="round" stroke-linejoin="round"/><path d="M -17.550 -15.550 L -16.900 -15.250 L -16.050 -15.050 L -14.950 -15.000" fill="none" stroke="#000000" stroke-opacity="0.2" stroke-width="0.4" stroke-linecap="round" stroke-linejoin="round"/><path d="M -14.950 -15.000 L -14.500 -15.050 L -13.700 -15.400" fill="none" stroke="#000000" stroke-opacity="0.2" stroke-width="0.4" stroke-linecap="round" stroke-linejoin="round"/><path d="M -14.550 -13.850 L -16.450 -13.300 L -17.800 -13.550" fill="none" stroke="#000000" stroke-opacity="0.2" stroke-width="0.4" stroke-linecap="round" stroke-linejoin="round"/><path d="M -14.950 -15.000 L -14.450 -14.450" fill="none" stroke="#000000" stroke-opacity="0.2" stroke-width="0.4" stroke-linecap="round" stroke-linejoin="round"/><path d="M -14.450 -14.450 L -13.550 -13.750 L -14.450 -14.450" fill="none" stroke="#000000" stroke-opacity="0.2" stroke-width="0.4" stroke-linecap="round" stroke-linejoin="round"/><path d="M -14.450 -14.450 L -14.450 -14.000 L -14.550 -13.850" fill="none" stroke="#000000" stroke-opacity="0.2" stroke-width="0.4" stroke-linecap="round" stroke-linejoin="round"/><path d="M -14.550 -13.850 Q -14.350 -13.600 -14.500 -13.300 L -14.850 -13.100" fill="none" stroke="#000000" stroke-opacity="0.2" stroke-width="0.4" stroke-linecap="round" stroke-linejoin="round"/><path d="M -14.850 -13.100 Q -14.700 -12.550 -15.400 -12.300" fill="none" stroke="#000000" stroke-opacity="0.2" stroke-width="0.4" stroke-linecap="round" stroke-linejoin="round"/><path d="M -15.400 -12.300 L -15.350 -11.850" fill="none" stroke="#000000" stroke-opacity="0.2" stroke-width="0.4" stroke-linecap="round" stroke-linejoin="round"/><path d="M -12.450 -11.200 L -11.600 -13.000 L -11.550 -13.050" fill="none" stroke="#000000" stroke-opacity="0.2" stroke-width="0.4" stroke-linecap="round" stroke-linejoin="round"/><path d="M -14.850 -13.100 Q -16.450 -12.450 -17.400 -12.750" fill="none" stroke="#000000" stroke-opacity="0.2" stroke-width="0.4" stroke-linecap="round" stroke-linejoin="round"/><path d="M -12.450 -11.150 L -12.450 -11.150" fill="none" stroke="#000000" stroke-opacity="0.2" stroke-width="0.4" stroke-linecap="round" stroke-linejoin="round"/><path d="M -15.400 -12.300 L -16.050 -12.100 L -16.800 -12.150" fill="none" stroke="#000000" stroke-opacity="0.2" stroke-width="0.4" stroke-linecap="round" stroke-linejoin="round"/><path d="M -12.650 -13.600 Q -13.300 -12.700 -13.550 -11.750" fill="none" stroke="#000000" stroke-opacity="0.2" stroke-width="0.4" stroke-linecap="round" stroke-linejoin="round"/><path d="M -12.100 -13.350 Q -12.750 -12.400 -13.000 -11.350 Q -12.750 -12.400 -12.100 -13.350" fill="none" stroke="#000000" stroke-opacity="0.2" stroke-width="0.4" stroke-linecap="round" stroke-linejoin="round"/><path d="M -2.750 -25.000 L -3.550 -24.700" fill="none" stroke="#000000" stroke-opacity="0.2" stroke-width="0.4" stroke-linecap="round" stroke-linejoin="round"/><path d="M -12.450 14.000 Q -11.650 14.050 -11.050 14.500 L -10.750 14.700 Q -9.850 15.400 -9.850 16.400 L -10.050 17.300" fill="none" stroke="#000000" stroke-opacity="0.2" stroke-width="0.4" stroke-linecap="round" stroke-linejoin="round"/><path d="M -10.350 4.800 Q -8.150 4.150 -5.900 4.850" fill="none" stroke="#000000" stroke-opacity="0.2" stroke-width="0.4" stroke-linecap="round" stroke-linejoin="round"/><path d="M -10.950 6.100 Q -8.250 5.350 -5.450 6.100 Q -8.250 5.350 -10.950 6.100" fill="none" stroke="#000000" stroke-opacity="0.2" stroke-width="0.4" stroke-linecap="round" stroke-linejoin="round"/><path d="M -10.700 8.150 Q -7.700 7.800 -5.650 8.150" fill="none" stroke="#000000" stroke-opacity="0.2" stroke-width="0.4" stroke-linecap="round" stroke-linejoin="round"/><path d="M -10.850 7.150 Q -7.950 6.500 -5.550 7.150 Q -7.950 6.500 -10.850 7.150" fill="none" stroke="#000000" stroke-opacity="0.2" stroke-width="0.4" stroke-linecap="round" stroke-linejoin="round"/><path d="M -4.950 -4.300 Q 0.600 -5.000 6.150 -4.300" fill="none" stroke="#000000" stroke-opacity="0.2" stroke-width="0.4" stroke-linecap="round" stroke-linejoin="round"/><path d="M -5.100 -3.350 Q 0.600 -4.000 6.350 -3.350 Q 0.600 -4.000 -5.100 -3.350" fill="none" stroke="#000000" stroke-opacity="0.2" stroke-width="0.4" stroke-linecap="round" stroke-linejoin="round"/><path d="M -1.500 -15.950 Q 0.650 -15.550 2.650 -15.950 Q 0.650 -15.550 -1.500 -15.950" fill="none" stroke="#000000" stroke-opacity="0.2" stroke-width="0.4" stroke-linecap="round" stroke-linejoin="round"/></g></g></g>
</svg>
