<svg xmlns="http://www.w3.org/2000/svg" viewBox="-36.0 -36.0 72.0 72.0" role="img" aria-label="m_Skeleton">
<g><g transform="matrix(1 0 0 1 0 0)" opacity="1"><g transform="matrix(1 0 0 1 0 0)"><path d="M 33.650 -48.150 Q 35.000 -46.300 35.000 -44.050 L 35.000 44.100 Q 35.000 46.350 33.650 48.150 Q 32.250 50.000 30.500 50.000 L -30.450 50.000 Q -32.200 50.000 -33.600 48.150 Q -35.000 46.350 -35.000 44.100 L -35.000 -44.050 Q -35.000 -46.300 -33.600 -48.150 Q -32.200 -50.000 -30.450 -50.000 L 30.500 -50.000 Q 32.250 -50.000 33.650 -48.150 Z" fill="#2c2921" fill-opacity="1" fill-rule="evenodd"/><path d="M 30.000 20.050 L 30.000 -32.750 L -30.000 -32.750 L -30.000 20.050 L 30.000 20.050 Z" fill="#2c2921" fill-opacity="1" fill-rule="evenodd"/></g><g transform="matrix(1 0 0 1 0 0)"><path d="M 30.000 20.050 L -30.000 20.050 L -30.000 -32.750 L 30.000 -32.750 L 30.000 20.050 Z" fill="#271d23" fill-opacity="1" fill-rule="evenodd"/></g><g transform="matrix(1 0 0 1 0 0)"><path d="M 0.600 -26.750 L -0.050 -26.900 L -0.850 -26.650 L -0.150 -25.950 Q 0.200 -25.850 0.650 -26.300 L 0.600 -26.750 Z" fill="#727667" fill-opacity="1" fill-rule="evenodd"/><path d="M 2.050 -25.550 L 1.700 -25.500 L 1.150 -25.550 L 1.000 -25.500 L 0.650 -25.300 L 0.450 -25.250 L -0.300 -25.000 L -1.400 -25.050 L -1.900 -25.000 L -2.200 -24.950 L -2.250 -24.950 L -2.350 -25.350 L -2.450 -25.750 L -3.200 -26.100 L -2.950 -27.050 Z" fill="#727667" fill-opacity="1" fill-rule="evenodd"/><path d="M -2.850 -27.000 L -3.100 -27.150 L -2.950 -28.100 L -2.600 -29.300 L -1.900 -30.100 Q -1.350 -30.500 -0.850 -30.500 Q 0.550 -30.650 1.400 -30.150 Q 2.900 -29.350 2.800 -27.550 L 2.700 -26.350 L 2.400 -25.850 L 2.050 -25.550 Z" fill="#727667" fill-opacity="1" fill-rule="evenodd"/><path d="M -2.850 -27.000 L -2.450 -26.300 Q -2.150 -26.050 -1.950 -26.550 L -1.950 -26.950 L -2.150 -26.900 L -2.700 -27.000 L -2.850 -27.000 Z" fill="#727667" fill-opacity="1" fill-rule="evenodd"/><path d="M -1.600 -26.050 L -1.750 -25.700 L -1.750 -25.250 L -1.600 -25.200 L -1.450 -25.350 L -1.300 -25.250 L -1.150 -25.400 L -1.600 -26.050 Z" fill="#727667" fill-opacity="1" fill-rule="evenodd"/><path d="M 0.600 -26.750 L 0.650 -26.300 Q 0.200 -25.850 -0.150 -25.950 L -0.850 -26.650 L -0.050 -26.900 L 0.600 -26.750 Z" fill="#000000" fill-opacity="1" fill-rule="evenodd"/><path d="M 1.000 -25.500 L 1.050 -24.800 L 1.050 -24.400 L 0.950 -24.050 L 0.850 -24.000 L 0.550 -23.750 L 0.450 -23.700 Q 0.400 -24.200 -0.050 -23.950 L -0.650 -23.700 L -1.100 -23.650 L -1.500 -23.600 L -2.250 -24.400 L -2.250 -24.450 L -2.200 -24.700 L -1.650 -24.550 L -0.850 -24.450 L -0.150 -24.600 Q 0.250 -24.750 0.350 -24.850 L 0.450 -25.250 L 0.650 -25.300 L 1.000 -25.500 Z" fill="#000000" fill-opacity="1" fill-rule="evenodd"/><path d="M -2.850 -27.000 L -2.700 -27.000 L -2.150 -26.900 L -1.950 -26.950 L -1.950 -26.550 Q -2.150 -26.050 -2.450 -26.300 L -2.850 -27.000 Z" fill="#000000" fill-opacity="1" fill-rule="evenodd"/><path d="M 0.250 -14.500 L -1.100 -14.300 L -0.800 -14.550 L -0.200 -15.050 L 0.100 -15.150 L 0.250 -15.150 L 0.550 -15.000 L 1.600 -14.550 L 2.000 -14.300 L 0.500 -14.500 L 0.250 -14.500 Z" fill="#000000" fill-opacity="1" fill-rule="evenodd"/><path d="M -1.600 -26.050 L -1.150 -25.400 L -1.300 -25.250 L -1.450 -25.350 L -1.600 -25.200 L -1.750 -25.250 L -1.750 -25.700 L -1.600 -26.050 Z" fill="#000000" fill-opacity="1" fill-rule="evenodd"/><path d="M 1.000 -25.500 L 1.150 -25.550 L 1.700 -25.500 L 2.050 -25.550 L 1.700 -24.350 L 1.550 -23.850 L 1.450 -23.700 L 1.450 -23.650 L 0.650 -23.050 L 0.550 -23.000 L -0.350 -22.550 L -0.400 -22.500 L -1.050 -22.450 L -1.250 -22.450 L -1.900 -22.650 L -2.350 -23.450 L -2.350 -23.600 L -2.300 -24.200 Q -1.950 -23.400 -1.600 -23.250 L -0.750 -23.200 L -0.350 -23.300 L 0.250 -23.600 L 0.450 -23.700 L 0.550 -23.750 L 0.850 -24.000 L 0.950 -24.050 L 1.050 -24.400 L 1.050 -24.800 L 1.000 -25.500 Z" fill="#727667" fill-opacity="1" fill-rule="evenodd"/><path d="M 0.450 -23.700 L 0.250 -23.600 L -0.350 -23.300 L -0.750 -23.200 L -1.600 -23.250 Q -1.950 -23.400 -2.300 -24.200 L -2.250 -24.400 L -1.500 -23.600 L -1.100 -23.650 L -0.650 -23.700 L -0.050 -23.950 Q 0.400 -24.200 0.450 -23.700 Z" fill="#3e4037" fill-opacity="1" fill-rule="evenodd"/><path d="M -2.350 -23.450 L -1.900 -22.650 L -1.250 -22.450 L -1.050 -22.450 L -0.650 -21.400 L -0.300 -21.150 L -0.450 -19.800 L -1.050 -19.950 L -2.100 -20.350 L -2.650 -20.800 L -3.000 -20.850 L -3.050 -20.300 L -2.500 -19.650 Q -1.750 -19.200 -0.500 -19.100 L -0.500 -18.800 L -1.250 -18.700 L -2.050 -18.450 L -2.650 -18.350 L -3.450 -18.950 Q -3.250 -18.100 -2.650 -18.000 L -0.550 -18.250 L -0.600 -17.500 L -2.200 -17.200 L -2.900 -17.500 L -3.300 -17.850 L -3.100 -17.550 L -2.500 -16.950 L -1.700 -16.800 L -0.600 -17.100 L -0.600 -16.900 L -0.550 -16.600 L -1.050 -16.300 L -1.950 -16.000 L -3.000 -16.500 L -2.850 -16.350 L -2.600 -16.050 Q -2.150 -15.550 -1.950 -15.600 L -1.000 -15.850 L -0.450 -16.050 L -0.450 -15.800 L -0.400 -15.550 Q -0.850 -15.250 -1.150 -15.300 L -1.950 -15.400 L -2.350 -15.450 Q -2.200 -15.150 -1.800 -15.050 L -0.250 -15.150 Z" fill="#5f6053" fill-opacity="1" fill-rule="evenodd"/><path d="M -1.100 -14.300 L -1.550 -13.950 L -2.100 -14.200 L -2.650 -14.600 L -2.650 -15.000 L -2.650 -15.450 L -3.050 -16.150 L -3.250 -16.400 L -3.550 -17.100 L -3.700 -17.550 L -3.700 -18.300 L -3.650 -19.000 L -3.550 -19.500 L -4.100 -19.900 L -4.250 -20.050 L -4.500 -20.750 L -4.750 -21.400 L -4.800 -21.500 L -4.800 -21.550 L -4.700 -21.950 L -4.400 -22.500 L -3.800 -22.950 L -2.350 -23.450 Z" fill="#5f6053" fill-opacity="1" fill-rule="evenodd"/><path d="M -0.200 -15.050 L -0.800 -14.550 L -1.100 -14.300 Z" fill="#5f6053" fill-opacity="1" fill-rule="evenodd"/><path d="M -1.050 -22.450 L -0.400 -22.500 L -0.350 -22.550 L 0.550 -23.000 L 0.650 -21.550 L 0.550 -21.400 L 0.450 -21.200 L -0.050 -21.150 L -0.300 -21.150 L -0.650 -21.400 L -1.050 -22.450 Z" fill="#3e4037" fill-opacity="1" fill-rule="evenodd"/><path d="M 0.550 -23.000 L 0.650 -23.050 L 1.450 -23.650 L 1.450 -23.700 L 1.550 -23.850 L 2.100 -23.600 L 2.600 -23.500 L 3.500 -23.450 L 4.350 -22.950 L 5.100 -22.250 L 5.150 -21.500 L 4.850 -21.250 Q 4.550 -20.950 4.800 -19.700 L 4.900 -19.400 L 5.050 -19.300 L 5.050 -18.850 L 5.100 -18.150 L 5.000 -17.300 L 4.950 -16.900 L 4.700 -16.950 Q 2.850 -15.950 2.100 -15.850 L 0.950 -16.050 L 0.250 -16.300 L 0.050 -17.050 L 2.100 -16.500 L 3.300 -16.900 L 4.300 -17.500 Q 4.550 -17.700 4.450 -18.300 Q 2.700 -17.100 2.100 -16.950 L 0.750 -17.200 L 0.000 -17.500 L -0.100 -18.050 L 1.250 -17.700 Q 2.050 -17.500 3.350 -18.250 Q 4.600 -18.950 4.300 -19.250 L 2.250 -18.300 L 0.750 -18.500 L -0.150 -18.750 L -0.150 -19.100 L 2.000 -19.350 L 2.750 -19.850 L 3.100 -20.350 L 2.850 -20.750 Q 2.650 -20.950 2.500 -20.750 Q 2.300 -20.450 1.050 -20.050 L -0.200 -19.850 L -0.300 -21.000 Z" fill="#5f6053" fill-opacity="1" fill-rule="evenodd"/><path d="M -0.300 -21.150 L -0.050 -21.150 L 0.450 -21.200 L 0.550 -21.400 L 0.650 -21.550 L 0.550 -23.000 Z" fill="#5f6053" fill-opacity="1" fill-rule="evenodd"/><path d="M 0.450 -25.250 L 0.350 -24.850 Q 0.250 -24.750 -0.150 -24.600 L -0.850 -24.450 L -1.650 -24.550 L -2.200 -24.700 L -2.200 -24.950 L -1.900 -25.000 L -1.400 -25.050 L -0.300 -25.000 L 0.450 -25.250 Z" fill="#3e4037" fill-opacity="1" fill-rule="evenodd"/><path d="M 10.650 -16.400 Q 11.700 -17.250 13.000 -17.200 Q 15.150 -17.250 16.700 -14.750 Q 18.250 -12.300 18.300 -8.850 Q 18.250 -5.400 16.700 -2.900 Q 15.150 -0.450 13.000 -0.450 Q 10.750 -0.450 9.250 -2.900 L 8.600 -4.150 Q 8.000 -5.450 7.800 -6.950 L 7.750 -7.250 L 7.700 -8.000 L 7.700 -8.850 Q 7.650 -12.300 9.250 -14.750 L 9.400 -15.000 Q 9.950 -15.900 10.650 -16.400 Z" fill="#2e2616" fill-opacity="1" fill-rule="evenodd"/><path d="M 14.400 -10.900 Q 13.950 -10.900 13.650 -10.300 Q 13.300 -9.700 13.350 -8.850 Q 13.300 -8.050 13.650 -7.400 Q 13.950 -6.850 14.400 -6.850 L 14.750 -6.950 L 16.650 -9.150 L 14.500 -10.900 L 14.400 -10.900 Z" fill="#2e2616" fill-opacity="1" fill-rule="evenodd"/><path d="M 9.400 -15.000 L 8.800 -15.750 L 7.550 -17.350 L 5.050 -19.300 L 4.900 -19.400 L 4.800 -19.700 Q 4.550 -20.950 4.850 -21.250 L 5.150 -21.500 L 5.650 -21.700 L 6.750 -21.400 L 7.950 -19.900 L 8.900 -18.300 L 10.050 -17.000 L 10.650 -16.400 Q 9.950 -15.900 9.400 -15.000 Z" fill="#727667" fill-opacity="1" fill-rule="evenodd"/><path d="M 4.950 -16.900 L 4.900 -16.850 L 4.850 -16.500 Q 4.950 -14.350 4.700 -14.100 L 3.200 -13.800 L 2.800 -13.950 Q 2.500 -14.050 2.000 -14.300 L 1.600 -14.550 L 0.550 -15.000 L 2.500 -14.750 L 3.850 -15.150 L 4.550 -15.600 L 4.100 -15.500 L 2.950 -15.150 L 1.350 -15.300 L 0.450 -15.500 L 2.400 -15.550 L 3.550 -16.000 L 4.350 -16.350 L 4.700 -16.950 L 4.950 -16.900 Z" fill="#5f6053" fill-opacity="1" fill-rule="evenodd"/><path d="M 2.800 -13.950 L 2.850 -13.150 L 2.800 -12.750 L 2.750 -11.750 L 2.500 -10.950 L 2.100 -10.300 L 2.050 -10.250 L 1.600 -10.100 L 1.550 -10.100 Q 1.250 -10.100 1.100 -10.250 L 0.850 -10.400 Q 0.350 -10.900 0.300 -11.750 L 0.300 -12.800 L 0.300 -13.150 L 0.300 -13.200 L 0.250 -14.500 L 0.500 -14.500 L 2.000 -14.300 Q 2.500 -14.050 2.800 -13.950 Z" fill="#3e4037" fill-opacity="1" fill-rule="evenodd"/><path d="M 2.800 -12.750 L 4.450 -12.750 L 5.550 -13.050 Q 6.000 -12.950 6.200 -12.150 L 6.300 -11.150 L 5.550 -10.550 L 5.700 -10.250 L 5.800 -9.850 L 5.750 -9.700 L 5.100 -9.450 L 4.850 -9.450 L 4.750 -9.400 L 4.300 -9.250 Q 4.000 -9.150 4.050 -8.650 L 4.000 -7.950 L 3.950 -7.900 L 3.800 -7.800 L 3.750 -7.800 L 3.650 -7.800 L 3.300 -7.800 L 3.250 -7.800 L 2.500 -7.550 L 1.500 -7.400 L -0.350 -7.650 L -0.900 -7.800 L -0.750 -7.850 L -1.100 -8.100 L -1.350 -8.600 L -1.350 -9.250 L -1.700 -9.500 L -2.050 -9.550 L -2.400 -9.700 L -2.500 -9.800 L -2.700 -10.050 L -2.700 -10.450 L -2.700 -10.550 L -2.650 -11.050 L -3.100 -11.750 Q -3.300 -12.200 -2.850 -12.650 L -1.950 -13.350 Q -1.500 -13.600 -1.250 -13.350 L -0.800 -12.900 L 0.300 -12.800 L 0.300 -11.750 Q 0.350 -10.900 0.850 -10.400 L 1.100 -10.250 Q 1.250 -10.100 1.550 -10.100 L 1.600 -10.100 L 2.050 -10.250 L 2.100 -10.300 L 2.500 -10.950 L 2.750 -11.750 L 2.800 -12.750 Z" fill="#56564b" fill-opacity="1" fill-rule="evenodd"/><path d="M -0.400 -7.750 L -0.350 -7.800 L -0.400 -7.800 L -0.400 -7.750 Z" fill="#56564b" fill-opacity="1" fill-rule="evenodd"/><path d="M 4.850 -9.450 L 5.200 -9.150 L 5.600 -8.600 L 5.350 -8.200 L 5.050 -7.700 L 5.050 -7.450 L 4.050 -7.550 Q 3.850 -7.600 3.650 -7.800 L 3.750 -7.800 L 3.800 -7.800 L 3.950 -7.900 L 4.000 -7.950 L 4.050 -8.650 Q 4.000 -9.150 4.300 -9.250 L 4.750 -9.400 L 4.850 -9.450 Z" fill="#3e4037" fill-opacity="1" fill-rule="evenodd"/><path d="M 5.600 -8.600 L 6.050 -9.400 Q 6.950 -9.150 7.250 -8.550 L 7.300 -8.300 L 7.350 -7.550 L 7.400 -7.250 Q 7.600 -5.750 8.200 -4.450 Q 8.300 -3.550 8.900 -2.500 L 9.150 -2.050 L 9.950 -0.500 L 10.100 -0.250 L 10.050 0.350 L 10.000 0.400 L 10.000 0.500 L 9.400 0.650 L 9.050 0.850 Q 8.750 1.050 8.550 1.300 L 8.350 1.100 L 7.650 0.850 L 7.600 1.050 L 7.550 0.850 L 7.550 0.650 L 7.550 0.400 L 7.550 0.300 L 7.700 -0.550 L 7.850 -0.950 L 6.700 -4.600 L 6.600 -4.750 L 5.900 -5.950 L 5.800 -6.100 L 5.300 -6.900 L 5.150 -7.250 L 5.050 -7.450 L 5.050 -7.700 L 5.350 -8.200 L 5.600 -8.600 Z" fill="#727667" fill-opacity="1" fill-rule="evenodd"/><path d="M 9.400 0.650 L 9.950 0.650 L 9.800 0.950 L 9.250 1.700 L 9.150 1.800 L 8.550 1.300 Q 8.750 1.050 9.050 0.850 L 9.400 0.650 Z" fill="#3e4037" fill-opacity="1" fill-rule="evenodd"/><path d="M 9.800 0.950 L 10.350 0.950 L 9.800 0.950 Z" fill="#3e4037" fill-opacity="1" fill-rule="evenodd"/><path d="M 9.150 1.800 L 8.550 3.700 Q 7.950 5.650 8.000 5.950 L 7.900 7.050 L 7.850 8.050 L 8.000 9.300 L 7.950 9.300 L 7.650 9.300 L 7.050 9.450 L 6.400 9.800 L 6.250 9.900 L 6.100 9.600 Q 5.700 8.700 5.800 8.400 L 6.250 7.700 L 6.300 7.650 L 6.850 6.550 L 7.500 3.050 L 7.550 2.250 L 7.550 2.150 L 7.550 1.700 L 7.600 1.050 L 7.650 0.850 L 8.350 1.100 L 8.550 1.300 L 9.150 1.800 Z" fill="#727667" fill-opacity="1" fill-rule="evenodd"/><path d="M 7.950 9.300 L 8.100 9.700 L 8.300 10.200 L 6.750 11.100 L 6.450 9.900 L 6.400 9.800 L 7.050 9.450 L 7.650 9.300 L 7.950 9.300 Z" fill="#3e4037" fill-opacity="1" fill-rule="evenodd"/><path d="M 8.300 10.200 L 8.550 10.850 L 8.850 11.250 L 8.600 11.350 L 7.950 11.700 L 7.150 12.300 L 6.750 11.100 L 8.300 10.200 Z" fill="#727667" fill-opacity="1" fill-rule="evenodd"/><path d="M 8.850 11.250 L 9.350 11.850 L 10.050 12.600 L 10.450 12.750 L 9.950 12.900 L 8.600 11.350 L 8.850 11.250 Z" fill="#3e4037" fill-opacity="1" fill-rule="evenodd"/><path d="M 10.450 12.750 L 10.650 12.800 L 11.600 12.800 L 12.850 14.400 L 11.450 13.450 L 11.250 13.050 L 10.250 12.900 Z" fill="#727667" fill-opacity="1" fill-rule="evenodd"/><path d="M 11.450 13.450 L 12.400 15.100 L 11.250 13.600 L 10.950 13.650 L 10.750 13.250 L 9.850 13.200 L 9.900 12.950 Z" fill="#727667" fill-opacity="1" fill-rule="evenodd"/><path d="M 9.950 12.900 L 10.450 12.750 Z" fill="#727667" fill-opacity="1" fill-rule="evenodd"/><path d="M 9.950 12.950 L 9.950 12.900 Z" fill="#727667" fill-opacity="1" fill-rule="evenodd"/><path d="M 10.250 12.900 L 11.250 13.050 L 11.450 13.450 Z" fill="#727667" fill-opacity="1" fill-rule="evenodd"/><path d="M 10.950 13.650 L 11.800 15.500 L 10.500 13.950 L 10.100 13.950 L 9.950 13.750 L 9.300 13.500 L 9.600 13.150 L 9.850 13.200 L 10.750 13.250 L 10.950 13.650 Z" fill="#727667" fill-opacity="1" fill-rule="evenodd"/><path d="M 10.100 13.950 L 10.900 15.500 L 10.250 14.850 L 9.500 14.200 L 8.900 14.100 L 8.600 13.950 L 9.000 13.450 L 9.050 13.400 L 9.300 13.500 L 9.950 13.750 L 10.100 13.950 Z" fill="#727667" fill-opacity="1" fill-rule="evenodd"/><path d="M 8.600 13.950 L 7.550 13.250 L 7.150 12.300 L 7.950 11.700 Q 8.750 12.150 9.050 13.400 Z" fill="#3e4037" fill-opacity="1" fill-rule="evenodd"/><path d="M 9.000 13.400 L 9.000 13.450 L 8.600 13.950 Z" fill="#3e4037" fill-opacity="1" fill-rule="evenodd"/><path d="M 6.100 9.600 L 5.650 9.600 L 5.450 9.050 L 5.250 8.450 L 5.450 8.100 L 5.900 7.700 L 6.300 7.650 L 6.250 7.700 L 5.800 8.400 Q 5.700 8.700 6.100 9.600 Z" fill="#3e4037" fill-opacity="1" fill-rule="evenodd"/><path d="M -0.900 -7.800 L -1.550 -7.500 L -2.500 -7.150 L -2.500 -7.900 L -2.500 -8.050 L -2.750 -8.450 L -2.800 -8.650 L -2.500 -9.050 L -2.050 -9.550 L -1.700 -9.500 L -1.350 -9.250 L -1.350 -8.600 L -1.100 -8.100 L -0.750 -7.850 L -0.900 -7.800 Z" fill="#3e4037" fill-opacity="1" fill-rule="evenodd"/><path d="M -2.500 -7.150 L -2.500 -6.950 L -2.500 -6.600 L -2.500 -6.200 L -2.600 -5.900 L -2.800 -5.200 L -2.900 -5.000 L -3.400 -3.200 L -3.650 0.700 L -3.650 2.000 L -3.650 3.500 Q -3.700 4.000 -4.300 4.500 L -4.600 4.250 Q -4.950 4.000 -5.250 3.900 Q -5.750 3.750 -6.400 4.200 L -6.450 4.200 L -6.600 3.050 L -6.350 2.400 L -6.050 2.000 L -6.000 1.900 L -5.650 0.700 L -5.400 -0.500 L -4.850 -3.450 L -4.900 -4.800 L -4.950 -5.200 L -5.000 -5.800 L -5.000 -5.900 L -5.000 -6.100 L -4.900 -6.450 L -4.900 -6.600 L -4.800 -6.950 L -4.500 -7.900 L -4.400 -8.250 L -3.950 -9.050 L -3.400 -9.100 L -2.800 -8.650 L -2.750 -8.450 L -2.500 -8.050 L -2.500 -7.900 L -2.500 -7.150 Z" fill="#727667" fill-opacity="1" fill-rule="evenodd"/><path d="M -4.300 4.500 L -4.450 5.200 L -5.000 7.700 L -4.750 8.700 L -4.550 9.450 L -4.850 9.750 L -5.350 10.400 Q -6.100 9.850 -7.300 10.400 L -7.100 9.850 L -6.450 7.100 L -6.350 4.600 L -6.450 4.200 Z" fill="#727667" fill-opacity="1" fill-rule="evenodd"/><path d="M -6.400 4.200 Q -5.750 3.750 -5.250 3.900 Q -4.950 4.000 -4.600 4.250 L -4.300 4.500 Z" fill="#727667" fill-opacity="1" fill-rule="evenodd"/><path d="M -5.350 10.400 L -5.450 10.750 L -5.500 11.450 Q -6.300 11.250 -7.600 11.450 L -7.300 10.400 Q -6.100 9.850 -5.350 10.400 Z" fill="#3e4037" fill-opacity="1" fill-rule="evenodd"/><path d="M -5.500 11.450 L -5.500 12.800 L -6.350 12.650 L -7.200 12.450 L -8.000 12.550 L -7.600 11.450 Q -6.300 11.250 -5.500 11.450 Z" fill="#727667" fill-opacity="1" fill-rule="evenodd"/><path d="M -5.500 12.800 L -5.500 12.850 L -5.450 14.650 L -5.550 15.100 L -6.150 14.700 L -6.650 14.800 L -7.050 14.450 L -6.350 12.650 L -5.500 12.800 Z" fill="#3e4037" fill-opacity="1" fill-rule="evenodd"/><path d="M -5.550 15.100 L -5.600 15.300 L -6.000 15.700 L -6.900 17.600 Q -7.250 17.350 -6.900 16.100 L -6.650 14.800 L -6.150 14.700 L -5.550 15.100 Z" fill="#727667" fill-opacity="1" fill-rule="evenodd"/><path d="M -6.650 14.800 Q -7.250 15.300 -7.600 16.350 L -7.900 17.600 Q -8.400 17.150 -8.200 16.100 L -7.500 14.550 L -7.050 14.450 L -6.650 14.800 Z" fill="#727667" fill-opacity="1" fill-rule="evenodd"/><path d="M -7.500 14.550 Q -8.650 16.050 -8.900 17.400 Q -9.200 17.200 -9.050 16.100 L -8.750 15.250 L -8.150 14.200 Z" fill="#727667" fill-opacity="1" fill-rule="evenodd"/><path d="M -8.000 14.300 L -7.500 14.550 Z" fill="#727667" fill-opacity="1" fill-rule="evenodd"/><path d="M -8.750 15.250 L -9.200 15.800 L -10.100 17.250 Q -10.050 16.000 -9.800 15.500 L -9.000 14.300 L -8.000 14.300 Z" fill="#727667" fill-opacity="1" fill-rule="evenodd"/><path d="M -8.150 14.200 L -8.750 15.250 Z" fill="#727667" fill-opacity="1" fill-rule="evenodd"/><path d="M -9.000 14.300 L -8.000 12.600 L -8.000 12.550 L -7.200 12.450 L -8.000 14.300 L -9.000 14.300 Z" fill="#3e4037" fill-opacity="1" fill-rule="evenodd"/><path d="M -4.250 -20.050 L -5.500 -18.550 L -6.350 -16.400 L -6.750 -15.150 L -7.050 -13.250 Q -7.600 -11.850 -7.800 -11.800 Q -8.300 -11.600 -8.900 -11.800 L -9.000 -11.800 L -9.650 -11.900 L -9.700 -11.900 L -9.850 -12.100 L -8.250 -15.550 L -8.000 -16.400 L -7.350 -19.650 L -6.750 -20.700 L -6.150 -21.400 L -5.900 -21.550 L -4.850 -21.500 L -4.800 -21.500 L -4.750 -21.400 L -4.500 -20.750 L -4.250 -20.050 Z" fill="#727667" fill-opacity="1" fill-rule="evenodd"/><path d="M -7.800 -11.800 L -7.800 -11.400 L -10.200 -8.800 L -11.250 -7.600 L -11.850 -6.950 L -11.950 -6.800 L -12.000 -6.750 L -12.900 -6.650 L -12.950 -6.750 L -12.850 -6.950 L -12.200 -8.650 L -11.300 -10.000 L -9.900 -11.650 L -9.700 -11.900 L -9.650 -11.900 L -9.000 -11.800 L -8.900 -11.800 Q -8.300 -11.600 -7.800 -11.800 Z" fill="#727667" fill-opacity="1" fill-rule="evenodd"/><path d="M -11.850 -6.950 L -11.850 -4.850 L -12.000 -4.650 L -12.500 -3.800 L -12.500 -3.750 L -13.750 -3.150 L -13.350 -3.650 L -12.900 -4.500 L -13.300 -5.150 L -13.250 -5.250 L -13.550 -6.000 L -12.900 -6.650 L -12.000 -6.750 L -11.950 -6.800 L -11.850 -6.950 Z" fill="#727667" fill-opacity="1" fill-rule="evenodd"/><path d="M -12.000 -4.650 L -12.000 -2.950 L -12.200 -3.300 L -12.100 -3.350 L -12.200 -3.350 L -12.500 -3.750 Z" fill="#727667" fill-opacity="1" fill-rule="evenodd"/><path d="M -12.500 -3.800 L -12.000 -4.650 Z" fill="#727667" fill-opacity="1" fill-rule="evenodd"/><path d="M -12.000 -2.950 L -11.300 -1.750 Q -11.000 -0.600 -12.200 -0.900 L -12.450 -1.250 L -12.000 -1.350 L -12.550 -1.550 L -11.850 -1.600 L -12.800 -1.800 Q -12.450 -2.250 -12.000 -2.550 L -13.200 -2.450 L -13.200 -2.450 Z" fill="#2e2616" fill-opacity="1" fill-rule="evenodd"/><path d="M -13.250 -2.500 L -12.200 -3.300 L -12.000 -2.950 Z" fill="#2e2616" fill-opacity="1" fill-rule="evenodd"/><path d="M -12.450 -1.250 L -13.050 -1.200 L -13.250 -1.500 L -12.550 -1.550 L -12.000 -1.350 L -12.450 -1.250 Z" fill="#727667" fill-opacity="1" fill-rule="evenodd"/><path d="M -13.250 -1.500 L -13.600 -1.450 L -13.900 -2.100 L -13.200 -1.950 L -13.200 -1.850 L -12.800 -1.800 L -11.850 -1.600 L -12.550 -1.550 L -13.250 -1.500 Z" fill="#727667" fill-opacity="1" fill-rule="evenodd"/><path d="M -13.900 -2.100 L -14.150 -2.150 L -14.600 -2.750 L -14.050 -2.550 L -13.350 -2.400 Z" fill="#727667" fill-opacity="1" fill-rule="evenodd"/><path d="M -13.200 -2.450 L -12.000 -2.550 Q -12.450 -2.250 -12.800 -1.800 Z" fill="#727667" fill-opacity="1" fill-rule="evenodd"/><path d="M -12.850 -1.900 L -12.950 -1.850 L -13.200 -1.950 L -13.900 -2.100 Z" fill="#727667" fill-opacity="1" fill-rule="evenodd"/><path d="M -14.600 -2.750 L -15.000 -2.950 L -14.650 -4.150 L -14.650 -4.200 L -14.450 -4.000 L -14.300 -4.050 L -13.750 -3.200 Z" fill="#727667" fill-opacity="1" fill-rule="evenodd"/><path d="M -12.200 -3.350 L -12.200 -3.300 L -13.250 -2.500 Z" fill="#727667" fill-opacity="1" fill-rule="evenodd"/><path d="M -13.750 -3.150 L -13.650 -3.100 L -13.500 -3.100 L -12.200 -3.350 Z" fill="#727667" fill-opacity="1" fill-rule="evenodd"/><path d="M -13.350 -2.400 L -14.050 -2.550 L -14.600 -2.750 Z" fill="#727667" fill-opacity="1" fill-rule="evenodd"/><path d="M -14.650 -4.200 L -17.350 -8.050 Q -19.550 -11.450 -19.450 -11.750 L -19.350 -14.100 L -19.900 -13.150 Q -20.250 -14.300 -20.300 -16.650 Q -20.350 -18.150 -18.550 -21.000 L -16.750 -23.600 Q -17.000 -17.150 -16.750 -15.450 Q -16.600 -13.850 -13.550 -6.000 L -13.250 -5.250 L -13.300 -5.150 Q -13.600 -4.300 -14.300 -4.050 L -14.450 -4.000 L -14.650 -4.200 Z" fill="#595959" fill-opacity="1" fill-rule="evenodd"/><path d="M -0.200 -19.850 L 1.050 -20.050 Q 2.300 -20.450 2.500 -20.750 Q 2.650 -20.950 2.850 -20.750 L 3.100 -20.350 L 2.750 -19.850 L 2.000 -19.350 L -0.150 -19.100 L -0.200 -19.850 Z" fill="#727667" fill-opacity="1" fill-rule="evenodd"/><path d="M -0.200 -19.850 L -0.150 -19.100 L -0.150 -18.750 L -0.100 -18.050 L 0.000 -17.500 L -0.050 -17.550 Z" fill="#727667" fill-opacity="1" fill-rule="evenodd"/><path d="M 0.050 -17.050 L 0.250 -16.300 L 0.350 -15.800 L 0.350 -15.750 L 0.400 -15.700 Z" fill="#727667" fill-opacity="1" fill-rule="evenodd"/><path d="M 0.550 -15.050 L 0.250 -15.150 L 0.100 -15.150 L -0.200 -15.050 L -0.400 -15.550 L -0.450 -15.800 L -0.450 -16.050 L -0.550 -16.600 L -0.600 -16.900 L -0.600 -17.100 L -0.600 -17.500 L -0.550 -18.250 L -0.500 -18.800 L -0.500 -19.100 L -0.450 -19.800 L -0.300 -21.150 Z" fill="#727667" fill-opacity="1" fill-rule="evenodd"/><path d="M 0.450 -15.500 L 0.550 -15.050 Z" fill="#727667" fill-opacity="1" fill-rule="evenodd"/><path d="M -0.300 -21.000 L -0.200 -19.850 Z" fill="#727667" fill-opacity="1" fill-rule="evenodd"/><path d="M 0.000 -17.500 L 0.050 -17.050 Z" fill="#727667" fill-opacity="1" fill-rule="evenodd"/><path d="M -0.150 -18.750 L 0.750 -18.500 L 2.250 -18.300 L 4.300 -19.250 Q 4.600 -18.950 3.350 -18.250 Q 2.050 -17.500 1.250 -17.700 L -0.100 -18.050 L -0.150 -18.750 Z" fill="#727667" fill-opacity="1" fill-rule="evenodd"/><path d="M 0.000 -17.500 L 0.750 -17.200 L 2.100 -16.950 Q 2.700 -17.100 4.450 -18.300 Q 4.550 -17.700 4.300 -17.500 L 3.300 -16.900 L 2.100 -16.500 L 0.050 -17.050 L 0.000 -17.500 Z" fill="#727667" fill-opacity="1" fill-rule="evenodd"/><path d="M 0.250 -16.300 L 0.950 -16.050 L 2.100 -15.850 Q 2.850 -15.950 4.700 -16.950 L 4.350 -16.350 L 3.550 -16.000 L 2.400 -15.550 L 0.450 -15.500 Z" fill="#727667" fill-opacity="1" fill-rule="evenodd"/><path d="M 0.350 -15.750 L 0.350 -15.800 L 0.250 -16.300 Z" fill="#727667" fill-opacity="1" fill-rule="evenodd"/><path d="M 0.500 -15.750 L 0.350 -15.750 Z" fill="#727667" fill-opacity="1" fill-rule="evenodd"/><path d="M 0.450 -15.500 L 1.350 -15.300 L 2.950 -15.150 L 4.100 -15.500 L 4.550 -15.600 L 3.850 -15.150 L 2.500 -14.750 L 0.550 -15.000 Z" fill="#727667" fill-opacity="1" fill-rule="evenodd"/><path d="M 0.600 -15.050 L 0.550 -15.050 L 0.450 -15.500 Z" fill="#727667" fill-opacity="1" fill-rule="evenodd"/><path d="M 0.400 -15.700 L 0.350 -15.750 L 0.500 -15.750 Z" fill="#727667" fill-opacity="1" fill-rule="evenodd"/><path d="M 14.400 -10.900 L 14.500 -10.900 L 16.650 -9.150 L 14.750 -6.950 L 14.400 -6.850 Q 13.950 -6.850 13.650 -7.400 Q 13.300 -8.050 13.350 -8.850 Q 13.300 -9.700 13.650 -10.300 Q 13.950 -10.900 14.400 -10.900 Z" fill="#595959" fill-opacity="1" fill-rule="evenodd"/><path d="M -0.500 -19.100 Q -1.750 -19.200 -2.500 -19.650 L -3.050 -20.300 L -3.000 -20.850 L -2.650 -20.800 L -2.100 -20.350 L -1.050 -19.950 L -0.450 -19.800 L -0.500 -19.100 Z" fill="#727667" fill-opacity="1" fill-rule="evenodd"/><path d="M -0.500 -18.800 L -0.550 -18.250 L -2.650 -18.000 Q -3.250 -18.100 -3.450 -18.950 L -2.650 -18.350 L -2.050 -18.450 L -1.250 -18.700 L -0.500 -18.800 Z" fill="#727667" fill-opacity="1" fill-rule="evenodd"/><path d="M -0.600 -17.500 L -0.600 -17.100 L -1.700 -16.800 L -2.500 -16.950 L -3.100 -17.550 L -3.300 -17.850 L -2.900 -17.500 L -2.200 -17.200 L -0.600 -17.500 Z" fill="#727667" fill-opacity="1" fill-rule="evenodd"/><path d="M -0.550 -16.600 L -0.450 -16.050 L -1.000 -15.850 L -1.950 -15.600 Q -2.150 -15.550 -2.600 -16.050 L -2.850 -16.350 L -3.000 -16.500 L -1.950 -16.000 L -1.050 -16.300 L -0.550 -16.600 Z" fill="#727667" fill-opacity="1" fill-rule="evenodd"/><path d="M -0.400 -15.550 L -0.200 -15.050 Z" fill="#727667" fill-opacity="1" fill-rule="evenodd"/><path d="M -0.250 -15.150 L -1.800 -15.050 Q -2.200 -15.150 -2.350 -15.450 L -1.950 -15.400 L -1.150 -15.300 Q -0.850 -15.250 -0.400 -15.550 Z" fill="#727667" fill-opacity="1" fill-rule="evenodd"/><path d="M -12.500 -3.750 L -12.200 -3.350 L -13.500 -3.100 L -13.650 -3.100 L -13.750 -3.150 L -12.500 -3.750 Z" fill="#2e2616" fill-opacity="1" fill-rule="evenodd"/><path d="M -13.300 -5.150 L -12.900 -4.500 L -13.350 -3.650 L -13.750 -3.150 Z" fill="#2e2616" fill-opacity="1" fill-rule="evenodd"/><path d="M -14.300 -4.050 Q -13.600 -4.300 -13.300 -5.150 Z" fill="#2e2616" fill-opacity="1" fill-rule="evenodd"/><path d="M -13.750 -3.200 L -14.300 -4.050 Z" fill="#2e2616" fill-opacity="1" fill-rule="evenodd"/><path d="M -0.400 -7.750 L -0.400 -7.800 L -0.350 -7.800 L -0.400 -7.750 Z" fill="#3e4037" fill-opacity="1" fill-rule="evenodd"/><path d="M -7.200 12.450 L -6.350 12.650 L -7.050 14.450 L -7.500 14.550 L -8.000 14.300 L -7.200 12.450 Z" fill="#3e4037" fill-opacity="1" fill-rule="evenodd"/><path d="M 7.950 11.700 L 8.600 11.350 L 9.950 12.900 Z" fill="#3e4037" fill-opacity="1" fill-rule="evenodd"/><path d="M 9.050 13.400 Q 8.750 12.150 7.950 11.700 Z" fill="#3e4037" fill-opacity="1" fill-rule="evenodd"/><path d="M 9.300 13.500 L 9.050 13.400 Z" fill="#3e4037" fill-opacity="1" fill-rule="evenodd"/><path d="M 9.850 13.200 L 9.600 13.150 L 9.300 13.500 Z" fill="#3e4037" fill-opacity="1" fill-rule="evenodd"/><path d="M 9.900 12.950 L 9.850 13.200 Z" fill="#3e4037" fill-opacity="1" fill-rule="evenodd"/><path d="M 0.600 -26.750 L -0.050 -26.900 L -0.850 -26.650 L -0.150 -25.950 Q 0.200 -25.850 0.650 -26.300 L 0.600 -26.750" fill="none" stroke="#000000" stroke-opacity="0.2" stroke-width="0.4" stroke-linecap="round" stroke-linejoin="round"/><path d="M 2.050 -25.550 L 1.700 -25.500 L 1.150 -25.550 L 1.000 -25.500 L 0.650 -25.300 L 0.450 -25.250 L -0.300 -25.000 L -1.400 -25.050 L -1.900 -25.000 L -2.200 -24.950 L -2.250 -24.950 L -2.350 -25.350 L -2.450 -25.750 L -3.200 -26.100 L -2.950 -27.050" fill="none" stroke="#000000" stroke-opacity="0.2" stroke-width="0.4" stroke-linecap="round" stroke-linejoin="round"/><path d="M 1.000 -25.500 L 1.050 -24.800 L 1.050 -24.400 L 0.950 -24.050 L 0.850 -24.000 L 0.550 -23.750 L 0.450 -23.700 Q 0.400 -24.200 -0.050 -23.950 L -0.650 -23.700 L -1.100 -23.650 L -1.500 -23.600 L -2.250 -24.400 L -2.250 -24.450 L -2.200 -24.700 L -1.650 -24.550 L -0.850 -24.450 L -0.150 -24.600 Q 0.250 -24.750 0.350 -24.850 L 0.450 -25.250 L 0.650 -25.300 L 1.000 -25.500" fill="none" stroke="#000000" stroke-opacity="0.2" stroke-width="0.4" stroke-linecap="round" stroke-linejoin="round"/><path d="M 0.450 -23.700 L 0.250 -23.600 L -0.350 -23.300 L -0.750 -23.200 L -1.600 -23.250 Q -1.950 -23.400 -2.300 -24.200 L -2.250 -24.400 L -1.500 -23.600 L -1.100 -23.650 L -0.650 -23.700 L -0.050 -23.950 Q 0.400 -24.200 0.450 -23.700" fill="none" stroke="#000000" stroke-opacity="0.2" stroke-width="0.4" stroke-linecap="round" stroke-linejoin="round"/><path d="M -2.300 -24.200 L -2.350 -23.600 L -2.350 -23.450" fill="none" stroke="#000000" stroke-opacity="0.2" stroke-width="0.4" stroke-linecap="round" stroke-linejoin="round"/><path d="M -2.350 -23.450 L -1.900 -22.650 L -1.250 -22.450 L -1.050 -22.450 L -0.650 -21.400 L -0.300 -21.150 L -0.450 -19.800 L -1.050 -19.950 L -2.100 -20.350 L -2.650 -20.800 L -3.000 -20.850 L -3.050 -20.300 L -2.500 -19.650 Q -1.750 -19.200 -0.500 -19.100 L -0.500 -18.800 L -1.250 -18.700 L -2.050 -18.450 L -2.650 -18.350 L -3.450 -18.950 Q -3.250 -18.100 -2.650 -18.000 L -0.550 -18.250 L -0.600 -17.500 L -2.200 -17.200 L -2.900 -17.500 L -3.300 -17.850 L -3.100 -17.550 L -2.500 -16.950 L -1.700 -16.800 L -0.600 -17.100 L -0.600 -16.900 L -0.550 -16.600 L -1.050 -16.300 L -1.950 -16.000 L -3.000 -16.500 L -2.850 -16.350 L -2.600 -16.050 Q -2.150 -15.550 -1.950 -15.600 L -1.000 -15.850 L -0.450 -16.050 L -0.450 -15.800 L -0.400 -15.550 Q -0.850 -15.250 -1.150 -15.300 L -1.950 -15.400 L -2.350 -15.450 Q -2.200 -15.150 -1.800 -15.050 L -0.250 -15.150" fill="none" stroke="#000000" stroke-opacity="0.2" stroke-width="0.4" stroke-linecap="round" stroke-linejoin="round"/><path d="M -1.050 -22.450 L -0.400 -22.500 L -0.350 -22.550 L 0.550 -23.000 L 0.650 -21.550 L 0.550 -21.400 L 0.450 -21.200 L -0.050 -21.150 L -0.300 -21.150 L -0.650 -21.400 L -1.050 -22.450" fill="none" stroke="#000000" stroke-opacity="0.2" stroke-width="0.4" stroke-linecap="round" stroke-linejoin="round"/><path d="M 0.550 -23.000 L 0.650 -23.050 L 1.450 -23.650 L 1.450 -23.700 L 1.550 -23.850 L 2.100 -23.600 L 2.600 -23.500 L 3.500 -23.450 L 4.350 -22.950 L 5.100 -22.250 L 5.150 -21.500 L 4.850 -21.250 Q 4.550 -20.950 4.800 -19.700 L 4.900 -19.400 L 5.050 -19.300 L 5.050 -18.850 L 5.100 -18.150 L 5.000 -17.300 L 4.950 -16.900 L 4.700 -16.950 Q 2.850 -15.950 2.100 -15.850 L 0.950 -16.050 L 0.250 -16.300 L 0.050 -17.050 L 2.100 -16.500 L 3.300 -16.900 L 4.300 -17.500 Q 4.550 -17.700 4.450 -18.300 Q 2.700 -17.100 2.100 -16.950 L 0.750 -17.200 L 0.000 -17.500 L -0.100 -18.050 L 1.250 -17.700 Q 2.050 -17.500 3.350 -18.250 Q 4.600 -18.950 4.300 -19.250 L 2.250 -18.300 L 0.750 -18.500 L -0.150 -18.750 L -0.150 -19.100 L 2.000 -19.350 L 2.750 -19.850 L 3.100 -20.350 L 2.850 -20.750 Q 2.650 -20.950 2.500 -20.750 Q 2.300 -20.450 1.050 -20.050 L -0.200 -19.850 L -0.300 -21.000" fill="none" stroke="#000000" stroke-opacity="0.2" stroke-width="0.4" stroke-linecap="round" stroke-linejoin="round"/><path d="M 1.550 -23.850 L 1.700 -24.350 L 2.050 -25.550" fill="none" stroke="#000000" stroke-opacity="0.2" stroke-width="0.4" stroke-linecap="round" stroke-linejoin="round"/><path d="M 2.050 -25.550 L 2.400 -25.850 L 2.700 -26.350 L 2.800 -27.550 Q 2.900 -29.350 1.400 -30.150 Q 0.550 -30.650 -0.850 -30.500 Q -1.350 -30.500 -1.900 -30.100 L -2.600 -29.300 L -2.950 -28.100 L -3.100 -27.150 L -2.850 -27.000" fill="none" stroke="#000000" stroke-opacity="0.2" stroke-width="0.4" stroke-linecap="round" stroke-linejoin="round"/><path d="M -2.850 -27.000 L -2.700 -27.000 L -2.150 -26.900 L -1.950 -26.950 L -1.950 -26.550 Q -2.150 -26.050 -2.450 -26.300 L -2.850 -27.000" fill="none" stroke="#000000" stroke-opacity="0.2" stroke-width="0.4" stroke-linecap="round" stroke-linejoin="round"/><path d="M 1.000 -25.500 L 0.650 -25.300 L 0.450 -25.250" fill="none" stroke="#000000" stroke-opacity="0.2" stroke-width="0.4" stroke-linecap="round" stroke-linejoin="round"/><path d="M 0.450 -25.250 L 0.350 -24.850 Q 0.250 -24.750 -0.150 -24.600 L -0.850 -24.450 L -1.650 -24.550 L -2.200 -24.700 L -2.200 -24.950 L -1.900 -25.000 L -1.400 -25.050 L -0.300 -25.000 L 0.450 -25.250" fill="none" stroke="#000000" stroke-opacity="0.2" stroke-width="0.4" stroke-linecap="round" stroke-linejoin="round"/><path d="M -2.200 -24.700 L -2.250 -24.450 L -2.250 -24.400" fill="none" stroke="#000000" stroke-opacity="0.2" stroke-width="0.4" stroke-linecap="round" stroke-linejoin="round"/><path d="M -2.250 -24.400 L -1.500 -23.600 L -1.100 -23.650 L -0.650 -23.700 L -0.050 -23.950 Q 0.400 -24.200 0.450 -23.700" fill="none" stroke="#000000" stroke-opacity="0.2" stroke-width="0.4" stroke-linecap="round" stroke-linejoin="round"/><path d="M 10.650 -16.400 Q 11.700 -17.250 13.000 -17.200 Q 15.150 -17.250 16.700 -14.750 Q 18.250 -12.300 18.300 -8.850 Q 18.250 -5.400 16.700 -2.900 Q 15.150 -0.450 13.000 -0.450 Q 10.750 -0.450 9.250 -2.900 L 8.600 -4.150 Q 8.000 -5.450 7.800 -6.950 L 7.750 -7.250 L 7.700 -8.000 L 7.700 -8.850 Q 7.650 -12.300 9.250 -14.750 L 9.400 -15.000 Q 9.950 -15.900 10.650 -16.400" fill="none" stroke="#000000" stroke-opacity="0.2" stroke-width="0.4" stroke-linecap="round" stroke-linejoin="round"/><path d="M 9.400 -15.000 L 8.800 -15.750 L 7.550 -17.350 L 5.050 -19.300 L 4.900 -19.400 L 4.800 -19.700 Q 4.550 -20.950 4.850 -21.250 L 5.150 -21.500 L 5.650 -21.700 L 6.750 -21.400 L 7.950 -19.900 L 8.900 -18.300 L 10.050 -17.000 L 10.650 -16.400 Q 9.950 -15.900 9.400 -15.000" fill="none" stroke="#000000" stroke-opacity="0.2" stroke-width="0.4" stroke-linecap="round" stroke-linejoin="round"/><path d="M 5.050 -19.300 L 5.050 -18.850 L 5.100 -18.150 L 5.000 -17.300 L 4.950 -16.900" fill="none" stroke="#000000" stroke-opacity="0.2" stroke-width="0.4" stroke-linecap="round" stroke-linejoin="round"/><path d="M 4.950 -16.900 L 4.900 -16.850 L 4.850 -16.500 Q 4.950 -14.350 4.700 -14.100 L 3.200 -13.800 L 2.800 -13.950 Q 2.500 -14.050 2.000 -14.300 L 1.600 -14.550 L 0.550 -15.000 L 2.500 -14.750 L 3.850 -15.150 L 4.550 -15.600 L 4.100 -15.500 L 2.950 -15.150 L 1.350 -15.300 L 0.450 -15.500 L 2.400 -15.550 L 3.550 -16.000 L 4.350 -16.350 L 4.700 -16.950 L 4.950 -16.900" fill="none" stroke="#000000" stroke-opacity="0.2" stroke-width="0.4" stroke-linecap="round" stroke-linejoin="round"/><path d="M 2.800 -13.950 L 2.850 -13.150 L 2.800 -12.750 L 2.750 -11.750 L 2.500 -10.950 L 2.100 -10.300 L 2.050 -10.250 L 1.600 -10.100 L 1.550 -10.100 Q 1.250 -10.100 1.100 -10.250 L 0.850 -10.400 Q 0.350 -10.900 0.300 -11.750 L 0.300 -12.800 L 0.300 -13.150 L 0.300 -13.200 L 0.250 -14.500 L 0.500 -14.500 L 2.000 -14.300 Q 2.500 -14.050 2.800 -13.950" fill="none" stroke="#000000" stroke-opacity="0.2" stroke-width="0.4" stroke-linecap="round" stroke-linejoin="round"/><path d="M 2.800 -12.750 L 4.450 -12.750 L 5.550 -13.050 Q 6.000 -12.950 6.200 -12.150 L 6.300 -11.150 L 5.550 -10.550 L 5.700 -10.250 L 5.800 -9.850 L 5.750 -9.700 L 5.100 -9.450 L 4.850 -9.450 L 4.750 -9.400 L 4.300 -9.250 Q 4.000 -9.150 4.050 -8.650 L 4.000 -7.950 L 3.950 -7.900 L 3.800 -7.800 L 3.750 -7.800 L 3.650 -7.800 L 3.300 -7.800 L 3.250 -7.800 L 2.500 -7.550 L 1.500 -7.400 L -0.350 -7.650 L -0.900 -7.800 L -0.750 -7.850 L -1.100 -8.100 L -1.350 -8.600 L -1.350 -9.250 L -1.700 -9.500 L -2.050 -9.550 L -2.400 -9.700 L -2.500 -9.800 L -2.700 -10.050 L -2.700 -10.450 L -2.700 -10.550 L -2.650 -11.050 L -3.100 -11.750 Q -3.300 -12.200 -2.850 -12.650 L -1.950 -13.350 Q -1.500 -13.600 -1.250 -13.350 L -0.800 -12.900 L 0.300 -12.800 L 0.300 -11.750 Q 0.350 -10.900 0.850 -10.400 L 1.100 -10.250 Q 1.250 -10.100 1.550 -10.100 L 1.600 -10.100 L 2.050 -10.250 L 2.100 -10.300 L 2.500 -10.950 L 2.750 -11.750 L 2.800 -12.750" fill="none" stroke="#000000" stroke-opacity="0.2" stroke-width="0.4" stroke-linecap="round" stroke-linejoin="round"/><path d="M 4.850 -9.450 L 5.200 -9.150 L 5.600 -8.600 L 5.350 -8.200 L 5.050 -7.700 L 5.050 -7.450 L 4.050 -7.550 Q 3.850 -7.600 3.650 -7.800 L 3.750 -7.800 L 3.800 -7.800 L 3.950 -7.900 L 4.000 -7.950 L 4.050 -8.650 Q 4.000 -9.150 4.300 -9.250 L 4.750 -9.400 L 4.850 -9.450" fill="none" stroke="#000000" stroke-opacity="0.2" stroke-width="0.4" stroke-linecap="round" stroke-linejoin="round"/><path d="M 5.600 -8.600 L 6.050 -9.400 Q 6.950 -9.150 7.250 -8.550 L 7.300 -8.300 L 7.350 -7.550 L 7.400 -7.250 Q 7.600 -5.750 8.200 -4.450 Q 8.300 -3.550 8.900 -2.500 L 9.150 -2.050 L 9.950 -0.500 L 10.100 -0.250 L 10.050 0.350 L 10.000 0.400 L 10.000 0.500 L 9.400 0.650 L 9.050 0.850 Q 8.750 1.050 8.550 1.300 L 8.350 1.100 L 7.650 0.850 L 7.600 1.050 L 7.550 0.850 L 7.550 0.650 L 7.550 0.400 L 7.550 0.300 L 7.700 -0.550 L 7.850 -0.950 L 6.700 -4.600 L 6.600 -4.750 L 5.900 -5.950 L 5.800 -6.100 L 5.300 -6.900 L 5.150 -7.250 L 5.050 -7.450 L 5.050 -7.700 L 5.350 -8.200 L 5.600 -8.600" fill="none" stroke="#000000" stroke-opacity="0.2" stroke-width="0.4" stroke-linecap="round" stroke-linejoin="round"/><path d="M 9.950 0.650 L 9.800 0.950" fill="none" stroke="#000000" stroke-opacity="0.2" stroke-width="0.4" stroke-linecap="round" stroke-linejoin="round"/><path d="M 9.800 0.950 L 9.250 1.700 L 9.150 1.800" fill="none" stroke="#000000" stroke-opacity="0.2" stroke-width="0.4" stroke-linecap="round" stroke-linejoin="round"/><path d="M 9.150 1.800 L 8.550 3.700 Q 7.950 5.650 8.000 5.950 L 7.900 7.050 L 7.850 8.050 L 8.000 9.300 L 7.950 9.300 L 7.650 9.300 L 7.050 9.450 L 6.400 9.800 L 6.250 9.900 L 6.100 9.600 Q 5.700 8.700 5.800 8.400 L 6.250 7.700 L 6.300 7.650 L 6.850 6.550 L 7.500 3.050 L 7.550 2.250 L 7.550 2.150 L 7.550 1.700 L 7.600 1.050 L 7.650 0.850 L 8.350 1.100 L 8.550 1.300 L 9.150 1.800" fill="none" stroke="#000000" stroke-opacity="0.2" stroke-width="0.4" stroke-linecap="round" stroke-linejoin="round"/><path d="M 7.950 9.300 L 8.100 9.700 L 8.300 10.200 L 6.750 11.100 L 6.450 9.900 L 6.400 9.800 L 7.050 9.450 L 7.650 9.300 L 7.950 9.300" fill="none" stroke="#000000" stroke-opacity="0.2" stroke-width="0.4" stroke-linecap="round" stroke-linejoin="round"/><path d="M 8.300 10.200 L 8.550 10.850 L 8.850 11.250 L 8.600 11.350 L 7.950 11.700 L 7.150 12.300 L 6.750 11.100 L 8.300 10.200" fill="none" stroke="#000000" stroke-opacity="0.2" stroke-width="0.4" stroke-linecap="round" stroke-linejoin="round"/><path d="M 8.850 11.250 L 9.350 11.850 L 10.050 12.600 L 10.450 12.750 L 9.950 12.900 L 8.600 11.350 L 8.850 11.250" fill="none" stroke="#000000" stroke-opacity="0.2" stroke-width="0.4" stroke-linecap="round" stroke-linejoin="round"/><path d="M 10.450 12.750 L 10.650 12.800 L 11.600 12.800 L 12.850 14.400 L 11.450 13.450 L 11.250 13.050 L 10.250 12.900" fill="none" stroke="#000000" stroke-opacity="0.2" stroke-width="0.4" stroke-linecap="round" stroke-linejoin="round"/><path d="M 11.450 13.450 L 12.400 15.100 L 11.250 13.600 L 10.950 13.650 L 10.750 13.250 L 9.850 13.200 L 9.900 12.950" fill="none" stroke="#000000" stroke-opacity="0.2" stroke-width="0.4" stroke-linecap="round" stroke-linejoin="round"/><path d="M 10.950 13.650 L 11.800 15.500 L 10.500 13.950 L 10.100 13.950 L 9.950 13.750 L 9.300 13.500 L 9.600 13.150 L 9.850 13.200 L 10.750 13.250 L 10.950 13.650" fill="none" stroke="#000000" stroke-opacity="0.2" stroke-width="0.4" stroke-linecap="round" stroke-linejoin="round"/><path d="M 10.100 13.950 L 10.900 15.500 L 10.250 14.850 L 9.500 14.200 L 8.900 14.100 L 8.600 13.950 L 9.000 13.450 L 9.050 13.400 L 9.300 13.500 L 9.950 13.750 L 10.100 13.950" fill="none" stroke="#000000" stroke-opacity="0.2" stroke-width="0.4" stroke-linecap="round" stroke-linejoin="round"/><path d="M 8.600 13.950 L 7.550 13.250 L 7.150 12.300 L 7.950 11.700 Q 8.750 12.150 9.050 13.400" fill="none" stroke="#000000" stroke-opacity="0.2" stroke-width="0.4" stroke-linecap="round" stroke-linejoin="round"/><path d="M 7.150 12.300 L 6.750 11.100" fill="none" stroke="#000000" stroke-opacity="0.2" stroke-width="0.4" stroke-linecap="round" stroke-linejoin="round"/><path d="M 6.750 11.100 L 6.450 9.900 L 6.400 9.800" fill="none" stroke="#000000" stroke-opacity="0.2" stroke-width="0.4" stroke-linecap="round" stroke-linejoin="round"/><path d="M 6.400 9.800 L 6.250 9.900 L 6.100 9.600" fill="none" stroke="#000000" stroke-opacity="0.2" stroke-width="0.4" stroke-linecap="round" stroke-linejoin="round"/><path d="M 6.100 9.600 L 5.650 9.600 L 5.450 9.050 L 5.250 8.450 L 5.450 8.100 L 5.900 7.700 L 6.300 7.650 L 6.250 7.700 L 5.800 8.400 Q 5.700 8.700 6.100 9.600" fill="none" stroke="#000000" stroke-opacity="0.2" stroke-width="0.4" stroke-linecap="round" stroke-linejoin="round"/><path d="M 6.300 7.650 L 6.850 6.550 L 7.500 3.050 L 7.550 2.250 L 7.550 2.150 L 7.550 1.700 L 7.600 1.050" fill="none" stroke="#000000" stroke-opacity="0.2" stroke-width="0.4" stroke-linecap="round" stroke-linejoin="round"/><path d="M 7.600 1.050 L 7.550 0.850 L 7.550 0.650 L 7.550 0.400 L 7.550 0.300 L 7.700 -0.550 L 7.850 -0.950 L 6.700 -4.600 L 6.600 -4.750 L 5.900 -5.950 L 5.800 -6.100 L 5.300 -6.900 L 5.150 -7.250 L 5.050 -7.450" fill="none" stroke="#000000" stroke-opacity="0.2" stroke-width="0.4" stroke-linecap="round" stroke-linejoin="round"/><path d="M 5.050 -7.450 L 4.050 -7.550 Q 3.850 -7.600 3.650 -7.800" fill="none" stroke="#000000" stroke-opacity="0.2" stroke-width="0.4" stroke-linecap="round" stroke-linejoin="round"/><path d="M 3.650 -7.800 L 3.300 -7.800 L 3.250 -7.800 L 2.500 -7.550 L 1.500 -7.400 L -0.350 -7.650 L -0.900 -7.800" fill="none" stroke="#000000" stroke-opacity="0.2" stroke-width="0.4" stroke-linecap="round" stroke-linejoin="round"/><path d="M -0.900 -7.800 L -1.550 -7.500 L -2.500 -7.150 L -2.500 -7.900 L -2.500 -8.050 L -2.750 -8.450 L -2.800 -8.650 L -2.500 -9.050 L -2.050 -9.550 L -1.700 -9.500 L -1.350 -9.250 L -1.350 -8.600 L -1.100 -8.100 L -0.750 -7.850 L -0.900 -7.800" fill="none" stroke="#000000" stroke-opacity="0.2" stroke-width="0.4" stroke-linecap="round" stroke-linejoin="round"/><path d="M -2.500 -7.150 L -2.500 -6.950 L -2.500 -6.600 L -2.500 -6.200 L -2.600 -5.900 L -2.800 -5.200 L -2.900 -5.000 L -3.400 -3.200 L -3.650 0.700 L -3.650 2.000 L -3.650 3.500 Q -3.700 4.000 -4.300 4.500 L -4.600 4.250 Q -4.950 4.000 -5.250 3.900 Q -5.750 3.750 -6.400 4.200 L -6.450 4.200 L -6.600 3.050 L -6.350 2.400 L -6.050 2.000 L -6.000 1.900 L -5.650 0.700 L -5.400 -0.500 L -4.850 -3.450 L -4.900 -4.800 L -4.950 -5.200 L -5.000 -5.800 L -5.000 -5.900 L -5.000 -6.100 L -4.900 -6.450 L -4.900 -6.600 L -4.800 -6.950 L -4.500 -7.900 L -4.400 -8.250 L -3.950 -9.050 L -3.400 -9.100 L -2.800 -8.650 L -2.750 -8.450 L -2.500 -8.050 L -2.500 -7.900 L -2.500 -7.150" fill="none" stroke="#000000" stroke-opacity="0.2" stroke-width="0.4" stroke-linecap="round" stroke-linejoin="round"/><path d="M -4.300 4.500 L -4.450 5.200 L -5.000 7.700 L -4.750 8.700 L -4.550 9.450 L -4.850 9.750 L -5.350 10.400 Q -6.100 9.850 -7.300 10.400 L -7.100 9.850 L -6.450 7.100 L -6.350 4.600 L -6.450 4.200" fill="none" stroke="#000000" stroke-opacity="0.2" stroke-width="0.4" stroke-linecap="round" stroke-linejoin="round"/><path d="M -5.350 10.400 L -5.450 10.750 L -5.500 11.450 Q -6.300 11.250 -7.600 11.450 L -7.300 10.400 Q -6.100 9.850 -5.350 10.400" fill="none" stroke="#000000" stroke-opacity="0.2" stroke-width="0.4" stroke-linecap="round" stroke-linejoin="round"/><path d="M -5.500 11.450 L -5.500 12.800 L -6.350 12.650 L -7.200 12.450 L -8.000 12.550 L -7.600 11.450 Q -6.300 11.250 -5.500 11.450" fill="none" stroke="#000000" stroke-opacity="0.2" stroke-width="0.4" stroke-linecap="round" stroke-linejoin="round"/><path d="M -5.500 12.800 L -5.500 12.850 L -5.450 14.650 L -5.550 15.100 L -6.150 14.700 L -6.650 14.800 L -7.050 14.450 L -6.350 12.650 L -5.500 12.800" fill="none" stroke="#000000" stroke-opacity="0.2" stroke-width="0.4" stroke-linecap="round" stroke-linejoin="round"/><path d="M -5.550 15.100 L -5.600 15.300 L -6.000 15.700 L -6.900 17.600 Q -7.250 17.350 -6.900 16.100 L -6.650 14.800 L -6.150 14.700 L -5.550 15.100" fill="none" stroke="#000000" stroke-opacity="0.2" stroke-width="0.4" stroke-linecap="round" stroke-linejoin="round"/><path d="M -6.650 14.800 Q -7.250 15.300 -7.600 16.350 L -7.900 17.600 Q -8.400 17.150 -8.200 16.100 L -7.500 14.550 L -7.050 14.450 L -6.650 14.800" fill="none" stroke="#000000" stroke-opacity="0.2" stroke-width="0.4" stroke-linecap="round" stroke-linejoin="round"/><path d="M -7.500 14.550 Q -8.650 16.050 -8.900 17.400 Q -9.200 17.200 -9.050 16.100 L -8.750 15.250 L -8.150 14.200" fill="none" stroke="#000000" stroke-opacity="0.2" stroke-width="0.4" stroke-linecap="round" stroke-linejoin="round"/><path d="M -8.750 15.250 L -9.200 15.800 L -10.100 17.250 Q -10.050 16.000 -9.800 15.500 L -9.000 14.300 L -8.000 14.300" fill="none" stroke="#000000" stroke-opacity="0.2" stroke-width="0.4" stroke-linecap="round" stroke-linejoin="round"/><path d="M -9.000 14.300 L -8.000 12.600 L -8.000 12.550 L -7.200 12.450 L -8.000 14.300 L -9.000 14.300" fill="none" stroke="#000000" stroke-opacity="0.2" stroke-width="0.4" stroke-linecap="round" stroke-linejoin="round"/><path d="M -8.000 12.550 L -7.600 11.450" fill="none" stroke="#000000" stroke-opacity="0.2" stroke-width="0.4" stroke-linecap="round" stroke-linejoin="round"/><path d="M -7.600 11.450 L -7.300 10.400" fill="none" stroke="#000000" stroke-opacity="0.2" stroke-width="0.4" stroke-linecap="round" stroke-linejoin="round"/><path d="M -7.300 10.400 L -7.100 9.850 L -6.450 7.100 L -6.350 4.600 L -6.450 4.200" fill="none" stroke="#000000" stroke-opacity="0.2" stroke-width="0.4" stroke-linecap="round" stroke-linejoin="round"/><path d="M -6.450 4.200 L -6.600 3.050 L -6.350 2.400 L -6.050 2.000 L -6.000 1.900 L -5.650 0.700 L -5.400 -0.500 L -4.850 -3.450 L -4.900 -4.800 L -4.950 -5.200 L -5.000 -5.800 L -5.000 -5.900 L -5.000 -6.100" fill="none" stroke="#000000" stroke-opacity="0.2" stroke-width="0.4" stroke-linecap="round" stroke-linejoin="round"/><path d="M -4.900 -6.450 L -4.900 -6.600 L -4.800 -6.950 L -4.500 -7.900 L -4.400 -8.250 L -3.950 -9.050 L -3.400 -9.100 L -2.800 -8.650" fill="none" stroke="#000000" stroke-opacity="0.2" stroke-width="0.4" stroke-linecap="round" stroke-linejoin="round"/><path d="M -2.800 -8.650 L -2.500 -9.050 L -2.050 -9.550" fill="none" stroke="#000000" stroke-opacity="0.2" stroke-width="0.4" stroke-linecap="round" stroke-linejoin="round"/><path d="M -2.050 -9.550 L -2.400 -9.700 L -2.500 -9.800 L -2.700 -10.050 L -2.700 -10.450 L -2.700 -10.550 L -2.650 -11.050 L -3.100 -11.750 Q -3.300 -12.200 -2.850 -12.650 L -1.950 -13.350 Q -1.500 -13.600 -1.250 -13.350 L -0.800 -12.900 L 0.300 -12.800" fill="none" stroke="#000000" stroke-opacity="0.2" stroke-width="0.4" stroke-linecap="round" stroke-linejoin="round"/><path d="M 0.300 -12.800 L 0.300 -13.150 L 0.300 -13.200 L 0.250 -14.500" fill="none" stroke="#000000" stroke-opacity="0.2" stroke-width="0.4" stroke-linecap="round" stroke-linejoin="round"/><path d="M 0.250 -14.500 L -1.100 -14.300 L -0.800 -14.550 L -0.200 -15.050 L 0.100 -15.150 L 0.250 -15.150 L 0.550 -15.000 L 1.600 -14.550 L 2.000 -14.300 L 0.500 -14.500 L 0.250 -14.500" fill="none" stroke="#000000" stroke-opacity="0.2" stroke-width="0.4" stroke-linecap="round" stroke-linejoin="round"/><path d="M -1.100 -14.300 L -1.550 -13.950 L -2.100 -14.200 L -2.650 -14.600 L -2.650 -15.000 L -2.650 -15.450 L -3.050 -16.150 L -3.250 -16.400 L -3.550 -17.100 L -3.700 -17.550 L -3.700 -18.300 L -3.650 -19.000 L -3.550 -19.500 L -4.100 -19.900 L -4.250 -20.050 L -4.500 -20.750 L -4.750 -21.400 L -4.800 -21.500 L -4.800 -21.550 L -4.700 -21.950 L -4.400 -22.500 L -3.800 -22.950 L -2.350 -23.450" fill="none" stroke="#000000" stroke-opacity="0.2" stroke-width="0.4" stroke-linecap="round" stroke-linejoin="round"/><path d="M -4.250 -20.050 L -5.500 -18.550 L -6.350 -16.400 L -6.750 -15.150 L -7.050 -13.250 Q -7.600 -11.850 -7.800 -11.800 Q -8.300 -11.600 -8.900 -11.800 L -9.000 -11.800 L -9.650 -11.900 L -9.700 -11.900 L -9.850 -12.100 L -8.250 -15.550 L -8.000 -16.400 L -7.350 -19.650 L -6.750 -20.700 L -6.150 -21.400 L -5.900 -21.550 L -4.850 -21.500 L -4.800 -21.500 L -4.750 -21.400 L -4.500 -20.750 L -4.250 -20.050" fill="none" stroke="#000000" stroke-opacity="0.2" stroke-width="0.4" stroke-linecap="round" stroke-linejoin="round"/><path d="M -7.800 -11.800 L -7.800 -11.400 L -10.200 -8.800 L -11.250 -7.600 L -11.850 -6.950 L -11.950 -6.800 L -12.000 -6.750 L -12.900 -6.650 L -12.950 -6.750 L -12.850 -6.950 L -12.200 -8.650 L -11.300 -10.000 L -9.900 -11.650 L -9.700 -11.900 L -9.650 -11.900 L -9.000 -11.800 L -8.900 -11.800 Q -8.300 -11.600 -7.800 -11.800" fill="none" stroke="#000000" stroke-opacity="0.2" stroke-width="0.4" stroke-linecap="round" stroke-linejoin="round"/><path d="M -11.850 -6.950 L -11.850 -4.850 L -12.000 -4.650 L -12.500 -3.800 L -12.500 -3.750 L -13.750 -3.150 L -13.350 -3.650 L -12.900 -4.500 L -13.300 -5.150 L -13.250 -5.250 L -13.550 -6.000 L -12.900 -6.650 L -12.000 -6.750 L -11.950 -6.800 L -11.850 -6.950" fill="none" stroke="#000000" stroke-opacity="0.2" stroke-width="0.4" stroke-linecap="round" stroke-linejoin="round"/><path d="M -12.000 -4.650 L -12.000 -2.950 L -12.200 -3.300 L -12.100 -3.350 L -12.200 -3.350 L -12.500 -3.750" fill="none" stroke="#000000" stroke-opacity="0.2" stroke-width="0.4" stroke-linecap="round" stroke-linejoin="round"/><path d="M -12.000 -2.950 L -11.300 -1.750 Q -11.000 -0.600 -12.200 -0.900 L -12.450 -1.250 L -12.000 -1.350 L -12.550 -1.550 L -11.850 -1.600 L -12.800 -1.800 Q -12.450 -2.250 -12.000 -2.550 L -13.200 -2.450 L -13.200 -2.450" fill="none" stroke="#000000" stroke-opacity="0.2" stroke-width="0.4" stroke-linecap="round" stroke-linejoin="round"/><path d="M -12.450 -1.250 L -13.050 -1.200 L -13.250 -1.500 L -12.550 -1.550 L -12.000 -1.350 L -12.450 -1.250" fill="none" stroke="#000000" stroke-opacity="0.2" stroke-width="0.4" stroke-linecap="round" stroke-linejoin="round"/><path d="M -13.250 -1.500 L -13.600 -1.450 L -13.900 -2.100 L -13.200 -1.950 L -13.200 -1.850 L -12.800 -1.800 L -11.850 -1.600 L -12.550 -1.550 L -13.250 -1.500" fill="none" stroke="#000000" stroke-opacity="0.2" stroke-width="0.4" stroke-linecap="round" stroke-linejoin="round"/><path d="M -13.900 -2.100 L -14.150 -2.150 L -14.600 -2.750 L -14.050 -2.550 L -13.350 -2.400" fill="none" stroke="#000000" stroke-opacity="0.2" stroke-width="0.4" stroke-linecap="round" stroke-linejoin="round"/><path d="M -14.600 -2.750 L -15.000 -2.950 L -14.650 -4.150 L -14.650 -4.200 L -14.450 -4.000 L -14.300 -4.050 L -13.750 -3.200" fill="none" stroke="#000000" stroke-opacity="0.2" stroke-width="0.4" stroke-linecap="round" stroke-linejoin="round"/><path d="M -14.650 -4.200 L -17.350 -8.050 Q -19.550 -11.450 -19.450 -11.750 L -19.350 -14.100 L -19.900 -13.150 Q -20.250 -14.300 -20.300 -16.650 Q -20.350 -18.150 -18.550 -21.000 L -16.750 -23.600 Q -17.000 -17.150 -16.750 -15.450 Q -16.600 -13.850 -13.550 -6.000 L -13.250 -5.250 L -13.300 -5.150 Q -13.600 -4.300 -14.300 -4.050 L -14.450 -4.000 L -14.650 -4.200" fill="none" stroke="#000000" stroke-opacity="0.2" stroke-width="0.4" stroke-linecap="round" stroke-linejoin="round"/><path d="M -13.550 -6.000 L -12.900 -6.650" fill="none" stroke="#000000" stroke-opacity="0.2" stroke-width="0.4" stroke-linecap="round" stroke-linejoin="round"/><path d="M -12.900 -6.650 L -12.950 -6.750 L -12.850 -6.950 L -12.200 -8.650 L -11.300 -10.000 L -9.900 -11.650 L -9.700 -11.900" fill="none" stroke="#000000" stroke-opacity="0.2" stroke-width="0.4" stroke-linecap="round" stroke-linejoin="round"/><path d="M -9.700 -11.900 L -9.850 -12.100 L -8.250 -15.550 L -8.000 -16.400 L -7.350 -19.650 L -6.750 -20.700 L -6.150 -21.400 L -5.900 -21.550 L -4.850 -21.500 L -4.800 -21.500" fill="none" stroke="#000000" stroke-opacity="0.2" stroke-width="0.4" stroke-linecap="round" stroke-linejoin="round"/><path d="M -4.800 -21.500 L -4.800 -21.550 L -4.700 -21.950 L -4.400 -22.500 L -3.800 -22.950 L -2.350 -23.450" fill="none" stroke="#000000" stroke-opacity="0.2" stroke-width="0.4" stroke-linecap="round" stroke-linejoin="round"/><path d="M 5.150 -21.500 L 5.650 -21.700 L 6.750 -21.400 L 7.950 -19.900 L 8.900 -18.300 L 10.050 -17.000 L 10.650 -16.400" fill="none" stroke="#000000" stroke-opacity="0.2" stroke-width="0.4" stroke-linecap="round" stroke-linejoin="round"/><path d="M 10.650 -16.400 Q 9.950 -15.900 9.400 -15.000" fill="none" stroke="#000000" stroke-opacity="0.2" stroke-width="0.4" stroke-linecap="round" stroke-linejoin="round"/><path d="M 1.550 -23.850 L 2.100 -23.600 L 2.600 -23.500 L 3.500 -23.450 L 4.350 -22.950 L 5.100 -22.250 L 5.150 -21.500" fill="none" stroke="#000000" stroke-opacity="0.2" stroke-width="0.4" stroke-linecap="round" stroke-linejoin="round"/><path d="M 5.150 -21.500 L 4.850 -21.250 Q 4.550 -20.950 4.800 -19.700 L 4.900 -19.400 L 5.050 -19.300" fill="none" stroke="#000000" stroke-opacity="0.2" stroke-width="0.4" stroke-linecap="round" stroke-linejoin="round"/><path d="M -0.150 -19.100 L 2.000 -19.350 L 2.750 -19.850 L 3.100 -20.350 L 2.850 -20.750 Q 2.650 -20.950 2.500 -20.750 Q 2.300 -20.450 1.050 -20.050 L -0.200 -19.850" fill="none" stroke="#000000" stroke-opacity="0.2" stroke-width="0.4" stroke-linecap="round" stroke-linejoin="round"/><path d="M -0.200 -19.850 L -0.150 -19.100 L -0.150 -18.750 L -0.100 -18.050 L 0.000 -17.500 L -0.050 -17.550" fill="none" stroke="#000000" stroke-opacity="0.2" stroke-width="0.4" stroke-linecap="round" stroke-linejoin="round"/><path d="M -0.150 -19.100 L -0.150 -18.750" fill="none" stroke="#000000" stroke-opacity="0.2" stroke-width="0.4" stroke-linecap="round" stroke-linejoin="round"/><path d="M -0.150 -18.750 L 0.750 -18.500 L 2.250 -18.300 L 4.300 -19.250 Q 4.600 -18.950 3.350 -18.250 Q 2.050 -17.500 1.250 -17.700 L -0.100 -18.050 L -0.150 -18.750" fill="none" stroke="#000000" stroke-opacity="0.2" stroke-width="0.4" stroke-linecap="round" stroke-linejoin="round"/><path d="M -0.100 -18.050 L 0.000 -17.500" fill="none" stroke="#000000" stroke-opacity="0.2" stroke-width="0.4" stroke-linecap="round" stroke-linejoin="round"/><path d="M 0.000 -17.500 L 0.750 -17.200 L 2.100 -16.950 Q 2.700 -17.100 4.450 -18.300 Q 4.550 -17.700 4.300 -17.500 L 3.300 -16.900 L 2.100 -16.500 L 0.050 -17.050 L 0.000 -17.500" fill="none" stroke="#000000" stroke-opacity="0.2" stroke-width="0.4" stroke-linecap="round" stroke-linejoin="round"/><path d="M 0.050 -17.050 L 0.250 -16.300 L 0.350 -15.800 L 0.350 -15.750 L 0.400 -15.700" fill="none" stroke="#000000" stroke-opacity="0.2" stroke-width="0.4" stroke-linecap="round" stroke-linejoin="round"/><path d="M 0.250 -16.300 L 0.950 -16.050 L 2.100 -15.850 Q 2.850 -15.950 4.700 -16.950 L 4.350 -16.350 L 3.550 -16.000 L 2.400 -15.550 L 0.450 -15.500" fill="none" stroke="#000000" stroke-opacity="0.2" stroke-width="0.4" stroke-linecap="round" stroke-linejoin="round"/><path d="M -0.300 -21.150 L -0.050 -21.150 L 0.450 -21.200 L 0.550 -21.400 L 0.650 -21.550 L 0.550 -23.000" fill="none" stroke="#000000" stroke-opacity="0.2" stroke-width="0.4" stroke-linecap="round" stroke-linejoin="round"/><path d="M 4.700 -16.950 L 4.350 -16.350 L 3.550 -16.000 L 2.400 -15.550 L 0.450 -15.500" fill="none" stroke="#000000" stroke-opacity="0.2" stroke-width="0.4" stroke-linecap="round" stroke-linejoin="round"/><path d="M 0.450 -15.500 L 1.350 -15.300 L 2.950 -15.150 L 4.100 -15.500 L 4.550 -15.600 L 3.850 -15.150 L 2.500 -14.750 L 0.550 -15.000" fill="none" stroke="#000000" stroke-opacity="0.2" stroke-width="0.4" stroke-linecap="round" stroke-linejoin="round"/><path d="M 0.550 -15.000 L 1.600 -14.550 L 2.000 -14.300" fill="none" stroke="#000000" stroke-opacity="0.2" stroke-width="0.4" stroke-linecap="round" stroke-linejoin="round"/><path d="M 2.000 -14.300 Q 2.500 -14.050 2.800 -13.950" fill="none" stroke="#000000" stroke-opacity="0.2" stroke-width="0.4" stroke-linecap="round" stroke-linejoin="round"/><path d="M 0.400 -15.700 L 0.350 -15.750 L 0.500 -15.750" fill="none" stroke="#000000" stroke-opacity="0.2" stroke-width="0.4" stroke-linecap="round" stroke-linejoin="round"/><path d="M 0.350 -15.750 L 0.350 -15.800 L 0.250 -16.300" fill="none" stroke="#000000" stroke-opacity="0.2" stroke-width="0.4" stroke-linecap="round" stroke-linejoin="round"/><path d="M 0.350 -15.750 L 0.500 -15.750" fill="none" stroke="#000000" stroke-opacity="0.2" stroke-width="0.4" stroke-linecap="round" stroke-linejoin="round"/><path d="M 0.550 -15.000 L 0.550 -15.050" fill="none" stroke="#000000" stroke-opacity="0.2" stroke-width="0.4" stroke-linecap="round" stroke-linejoin="round"/><path d="M 0.550 -15.050 L 0.250 -15.150 L 0.100 -15.150 L -0.200 -15.050 L -0.400 -15.550 L -0.450 -15.800 L -0.450 -16.050 L -0.550 -16.600 L -0.600 -16.900 L -0.600 -17.100 L -0.600 -17.500 L -0.550 -18.250 L -0.500 -18.800 L -0.500 -19.100 L -0.450 -19.800 L -0.300 -21.150" fill="none" stroke="#000000" stroke-opacity="0.2" stroke-width="0.4" stroke-linecap="round" stroke-linejoin="round"/><path d="M 0.250 -15.150 L 0.550 -15.000" fill="none" stroke="#000000" stroke-opacity="0.2" stroke-width="0.4" stroke-linecap="round" stroke-linejoin="round"/><path d="M 0.550 -15.050 L 0.600 -15.050" fill="none" stroke="#000000" stroke-opacity="0.2" stroke-width="0.4" stroke-linecap="round" stroke-linejoin="round"/><path d="M -0.200 -15.050 L 0.100 -15.150 L 0.250 -15.150" fill="none" stroke="#000000" stroke-opacity="0.2" stroke-width="0.4" stroke-linecap="round" stroke-linejoin="round"/><path d="M 2.000 -14.300 L 0.500 -14.500 L 0.250 -14.500" fill="none" stroke="#000000" stroke-opacity="0.2" stroke-width="0.4" stroke-linecap="round" stroke-linejoin="round"/><path d="M 0.550 -15.050 L 0.450 -15.500" fill="none" stroke="#000000" stroke-opacity="0.2" stroke-width="0.4" stroke-linecap="round" stroke-linejoin="round"/><path d="M 5.050 -7.450 L 5.050 -7.700 L 5.350 -8.200 L 5.600 -8.600" fill="none" stroke="#000000" stroke-opacity="0.2" stroke-width="0.4" stroke-linecap="round" stroke-linejoin="round"/><path d="M 4.850 -9.450 L 4.750 -9.400 L 4.300 -9.250 Q 4.000 -9.150 4.050 -8.650 L 4.000 -7.950 L 3.950 -7.900 L 3.800 -7.800 L 3.750 -7.800 L 3.650 -7.800" fill="none" stroke="#000000" stroke-opacity="0.2" stroke-width="0.4" stroke-linecap="round" stroke-linejoin="round"/><path d="M 2.800 -12.750 L 2.750 -11.750 L 2.500 -10.950 L 2.100 -10.300 L 2.050 -10.250 L 1.600 -10.100 L 1.550 -10.100 Q 1.250 -10.100 1.100 -10.250 L 0.850 -10.400 Q 0.350 -10.900 0.300 -11.750 L 0.300 -12.800" fill="none" stroke="#000000" stroke-opacity="0.2" stroke-width="0.4" stroke-linecap="round" stroke-linejoin="round"/><path d="M 14.400 -10.900 Q 13.950 -10.900 13.650 -10.300 Q 13.300 -9.700 13.350 -8.850 Q 13.300 -8.050 13.650 -7.400 Q 13.950 -6.850 14.400 -6.850 L 14.750 -6.950 L 16.650 -9.150 L 14.500 -10.900 L 14.400 -10.900" fill="none" stroke="#000000" stroke-opacity="0.2" stroke-width="0.4" stroke-linecap="round" stroke-linejoin="round"/><path d="M -2.200 -24.950 L -2.250 -24.950 L -2.350 -25.350 L -2.450 -25.750 L -3.200 -26.100 L -2.950 -27.050" fill="none" stroke="#000000" stroke-opacity="0.2" stroke-width="0.4" stroke-linecap="round" stroke-linejoin="round"/><path d="M -1.600 -26.050 L -1.150 -25.400 L -1.300 -25.250 L -1.450 -25.350 L -1.600 -25.200 L -1.750 -25.250 L -1.750 -25.700 L -1.600 -26.050" fill="none" stroke="#000000" stroke-opacity="0.2" stroke-width="0.4" stroke-linecap="round" stroke-linejoin="round"/><path d="M 0.450 -25.250 L -0.300 -25.000 L -1.400 -25.050 L -1.900 -25.000 L -2.200 -24.950" fill="none" stroke="#000000" stroke-opacity="0.2" stroke-width="0.4" stroke-linecap="round" stroke-linejoin="round"/><path d="M -2.200 -24.950 L -2.200 -24.700" fill="none" stroke="#000000" stroke-opacity="0.2" stroke-width="0.4" stroke-linecap="round" stroke-linejoin="round"/><path d="M -0.450 -19.800 L -1.050 -19.950 L -2.100 -20.350 L -2.650 -20.800 L -3.000 -20.850 L -3.050 -20.300 L -2.500 -19.650 Q -1.750 -19.200 -0.500 -19.100" fill="none" stroke="#000000" stroke-opacity="0.2" stroke-width="0.4" stroke-linecap="round" stroke-linejoin="round"/><path d="M -0.500 -19.100 L -0.450 -19.800" fill="none" stroke="#000000" stroke-opacity="0.2" stroke-width="0.4" stroke-linecap="round" stroke-linejoin="round"/><path d="M -0.450 -19.800 L -0.300 -21.150" fill="none" stroke="#000000" stroke-opacity="0.2" stroke-width="0.4" stroke-linecap="round" stroke-linejoin="round"/><path d="M -0.300 -21.150 L -0.650 -21.400 L -1.050 -22.450" fill="none" stroke="#000000" stroke-opacity="0.2" stroke-width="0.4" stroke-linecap="round" stroke-linejoin="round"/><path d="M -4.800 -21.500 L -4.750 -21.400 L -4.500 -20.750 L -4.250 -20.050" fill="none" stroke="#000000" stroke-opacity="0.2" stroke-width="0.4" stroke-linecap="round" stroke-linejoin="round"/><path d="M -0.500 -19.100 L -0.500 -18.800" fill="none" stroke="#000000" stroke-opacity="0.2" stroke-width="0.4" stroke-linecap="round" stroke-linejoin="round"/><path d="M -0.500 -18.800 L -0.550 -18.250 L -2.650 -18.000 Q -3.250 -18.100 -3.450 -18.950 L -2.650 -18.350 L -2.050 -18.450 L -1.250 -18.700 L -0.500 -18.800" fill="none" stroke="#000000" stroke-opacity="0.2" stroke-width="0.4" stroke-linecap="round" stroke-linejoin="round"/><path d="M -0.550 -18.250 L -0.600 -17.500" fill="none" stroke="#000000" stroke-opacity="0.2" stroke-width="0.4" stroke-linecap="round" stroke-linejoin="round"/><path d="M -0.600 -17.500 L -0.600 -17.100 L -1.700 -16.800 L -2.500 -16.950 L -3.100 -17.550 L -3.300 -17.850 L -2.900 -17.500 L -2.200 -17.200 L -0.600 -17.500" fill="none" stroke="#000000" stroke-opacity="0.2" stroke-width="0.4" stroke-linecap="round" stroke-linejoin="round"/><path d="M -0.600 -17.100 L -0.600 -16.900 L -0.550 -16.600" fill="none" stroke="#000000" stroke-opacity="0.2" stroke-width="0.4" stroke-linecap="round" stroke-linejoin="round"/><path d="M -0.550 -16.600 L -0.450 -16.050 L -1.000 -15.850 L -1.950 -15.600 Q -2.150 -15.550 -2.600 -16.050 L -2.850 -16.350 L -3.000 -16.500 L -1.950 -16.000 L -1.050 -16.300 L -0.550 -16.600" fill="none" stroke="#000000" stroke-opacity="0.2" stroke-width="0.4" stroke-linecap="round" stroke-linejoin="round"/><path d="M -0.450 -16.050 L -0.450 -15.800 L -0.400 -15.550" fill="none" stroke="#000000" stroke-opacity="0.2" stroke-width="0.4" stroke-linecap="round" stroke-linejoin="round"/><path d="M -0.400 -15.550 L -0.200 -15.050" fill="none" stroke="#000000" stroke-opacity="0.2" stroke-width="0.4" stroke-linecap="round" stroke-linejoin="round"/><path d="M -0.200 -15.050 L -0.800 -14.550 L -1.100 -14.300" fill="none" stroke="#000000" stroke-opacity="0.2" stroke-width="0.4" stroke-linecap="round" stroke-linejoin="round"/><path d="M -0.500 -18.800 L -1.250 -18.700 L -2.050 -18.450 L -2.650 -18.350 L -3.450 -18.950 Q -3.250 -18.100 -2.650 -18.000 L -0.550 -18.250" fill="none" stroke="#000000" stroke-opacity="0.2" stroke-width="0.4" stroke-linecap="round" stroke-linejoin="round"/><path d="M -0.200 -19.850 L -0.300 -21.000" fill="none" stroke="#000000" stroke-opacity="0.2" stroke-width="0.4" stroke-linecap="round" stroke-linejoin="round"/><path d="M 0.000 -17.500 L -0.050 -17.550" fill="none" stroke="#000000" stroke-opacity="0.2" stroke-width="0.4" stroke-linecap="round" stroke-linejoin="round"/><path d="M -0.600 -17.500 L -2.200 -17.200 L -2.900 -17.500 L -3.300 -17.850 L -3.100 -17.550 L -2.500 -16.950 L -1.700 -16.800 L -0.600 -17.100" fill="none" stroke="#000000" stroke-opacity="0.2" stroke-width="0.4" stroke-linecap="round" stroke-linejoin="round"/><path d="M -0.550 -16.600 L -1.050 -16.300 L -1.950 -16.000 L -3.000 -16.500 L -2.850 -16.350 L -2.600 -16.050 Q -2.150 -15.550 -1.950 -15.600 L -1.000 -15.850 L -0.450 -16.050" fill="none" stroke="#000000" stroke-opacity="0.2" stroke-width="0.4" stroke-linecap="round" stroke-linejoin="round"/><path d="M -0.400 -15.550 Q -0.850 -15.250 -1.150 -15.300 L -1.950 -15.400 L -2.350 -15.450 Q -2.200 -15.150 -1.800 -15.050 L -0.250 -15.150" fill="none" stroke="#000000" stroke-opacity="0.2" stroke-width="0.4" stroke-linecap="round" stroke-linejoin="round"/><path d="M -0.150 -18.750 L -0.100 -18.050" fill="none" stroke="#000000" stroke-opacity="0.2" stroke-width="0.4" stroke-linecap="round" stroke-linejoin="round"/><path d="M -11.850 -6.950 L -11.950 -6.800 L -12.000 -6.750 L -12.900 -6.650" fill="none" stroke="#000000" stroke-opacity="0.2" stroke-width="0.4" stroke-linecap="round" stroke-linejoin="round"/><path d="M -12.200 -3.350 L -12.200 -3.300 L -13.250 -2.500" fill="none" stroke="#000000" stroke-opacity="0.2" stroke-width="0.4" stroke-linecap="round" stroke-linejoin="round"/><path d="M -12.200 -3.300 L -12.100 -3.350 L -12.200 -3.350" fill="none" stroke="#000000" stroke-opacity="0.2" stroke-width="0.4" stroke-linecap="round" stroke-linejoin="round"/><path d="M -12.200 -3.350 L -12.500 -3.750" fill="none" stroke="#000000" stroke-opacity="0.2" stroke-width="0.4" stroke-linecap="round" stroke-linejoin="round"/><path d="M -12.500 -3.750 L -13.750 -3.150" fill="none" stroke="#000000" stroke-opacity="0.2" stroke-width="0.4" stroke-linecap="round" stroke-linejoin="round"/><path d="M -13.750 -3.150 L -13.650 -3.100 L -13.500 -3.100 L -12.200 -3.350" fill="none" stroke="#000000" stroke-opacity="0.2" stroke-width="0.4" stroke-linecap="round" stroke-linejoin="round"/><path d="M -12.500 -3.750 L -12.500 -3.800" fill="none" stroke="#000000" stroke-opacity="0.2" stroke-width="0.4" stroke-linecap="round" stroke-linejoin="round"/><path d="M -12.500 -3.800 L -12.000 -4.650" fill="none" stroke="#000000" stroke-opacity="0.2" stroke-width="0.4" stroke-linecap="round" stroke-linejoin="round"/><path d="M -13.550 -6.000 L -13.250 -5.250 L -13.300 -5.150" fill="none" stroke="#000000" stroke-opacity="0.2" stroke-width="0.4" stroke-linecap="round" stroke-linejoin="round"/><path d="M -13.300 -5.150 L -12.900 -4.500 L -13.350 -3.650 L -13.750 -3.150" fill="none" stroke="#000000" stroke-opacity="0.2" stroke-width="0.4" stroke-linecap="round" stroke-linejoin="round"/><path d="M -14.650 -4.200 L -14.450 -4.000 L -14.300 -4.050" fill="none" stroke="#000000" stroke-opacity="0.2" stroke-width="0.4" stroke-linecap="round" stroke-linejoin="round"/><path d="M -14.300 -4.050 Q -13.600 -4.300 -13.300 -5.150" fill="none" stroke="#000000" stroke-opacity="0.2" stroke-width="0.4" stroke-linecap="round" stroke-linejoin="round"/><path d="M -14.300 -4.050 L -13.750 -3.200" fill="none" stroke="#000000" stroke-opacity="0.2" stroke-width="0.4" stroke-linecap="round" stroke-linejoin="round"/><path d="M -13.200 -2.450 L -13.200 -2.450" fill="none" stroke="#000000" stroke-opacity="0.2" stroke-width="0.4" stroke-linecap="round" stroke-linejoin="round"/><path d="M -13.200 -2.450 L -12.000 -2.550 Q -12.450 -2.250 -12.800 -1.800" fill="none" stroke="#000000" stroke-opacity="0.2" stroke-width="0.4" stroke-linecap="round" stroke-linejoin="round"/><path d="M -12.800 -1.800 L -11.850 -1.600 L -12.550 -1.550" fill="none" stroke="#000000" stroke-opacity="0.2" stroke-width="0.4" stroke-linecap="round" stroke-linejoin="round"/><path d="M -12.550 -1.550 L -12.000 -1.350 L -12.450 -1.250" fill="none" stroke="#000000" stroke-opacity="0.2" stroke-width="0.4" stroke-linecap="round" stroke-linejoin="round"/><path d="M -13.200 -1.950 L -12.950 -1.850 L -12.850 -1.900" fill="none" stroke="#000000" stroke-opacity="0.2" stroke-width="0.4" stroke-linecap="round" stroke-linejoin="round"/><path d="M -12.800 -1.800 L -13.200 -1.850 L -13.200 -1.950" fill="none" stroke="#000000" stroke-opacity="0.2" stroke-width="0.4" stroke-linecap="round" stroke-linejoin="round"/><path d="M -13.200 -1.950 L -13.900 -2.100" fill="none" stroke="#000000" stroke-opacity="0.2" stroke-width="0.4" stroke-linecap="round" stroke-linejoin="round"/><path d="M -13.350 -2.400 L -14.050 -2.550 L -14.600 -2.750" fill="none" stroke="#000000" stroke-opacity="0.2" stroke-width="0.4" stroke-linecap="round" stroke-linejoin="round"/><path d="M -13.250 -1.500 L -12.550 -1.550" fill="none" stroke="#000000" stroke-opacity="0.2" stroke-width="0.4" stroke-linecap="round" stroke-linejoin="round"/><path d="M -12.200 -3.300 L -13.250 -2.500" fill="none" stroke="#000000" stroke-opacity="0.2" stroke-width="0.4" stroke-linecap="round" stroke-linejoin="round"/><path d="M -12.200 -3.300 L -12.000 -2.950" fill="none" stroke="#000000" stroke-opacity="0.2" stroke-width="0.4" stroke-linecap="round" stroke-linejoin="round"/><path d="M -2.050 -9.550 L -1.700 -9.500 L -1.350 -9.250 L -1.350 -8.600 L -1.100 -8.100 L -0.750 -7.850 L -0.900 -7.800" fill="none" stroke="#000000" stroke-opacity="0.2" stroke-width="0.4" stroke-linecap="round" stroke-linejoin="round"/><path d="M -2.500 -7.150 L -2.500 -7.900 L -2.500 -8.050 L -2.750 -8.450 L -2.800 -8.650" fill="none" stroke="#000000" stroke-opacity="0.2" stroke-width="0.4" stroke-linecap="round" stroke-linejoin="round"/><path d="M -7.800 -11.800 Q -8.300 -11.600 -8.900 -11.800 L -9.000 -11.800 L -9.650 -11.900 L -9.700 -11.900" fill="none" stroke="#000000" stroke-opacity="0.2" stroke-width="0.4" stroke-linecap="round" stroke-linejoin="round"/><path d="M -6.400 4.200 Q -5.750 3.750 -5.250 3.900 Q -4.950 4.000 -4.600 4.250 L -4.300 4.500" fill="none" stroke="#000000" stroke-opacity="0.2" stroke-width="0.4" stroke-linecap="round" stroke-linejoin="round"/><path d="M -7.300 10.400 Q -6.100 9.850 -5.350 10.400" fill="none" stroke="#000000" stroke-opacity="0.2" stroke-width="0.4" stroke-linecap="round" stroke-linejoin="round"/><path d="M -7.600 11.450 Q -6.300 11.250 -5.500 11.450" fill="none" stroke="#000000" stroke-opacity="0.2" stroke-width="0.4" stroke-linecap="round" stroke-linejoin="round"/><path d="M -7.200 12.450 L -6.350 12.650 L -7.050 14.450 L -7.500 14.550 L -8.000 14.300 L -7.200 12.450" fill="none" stroke="#000000" stroke-opacity="0.2" stroke-width="0.4" stroke-linecap="round" stroke-linejoin="round"/><path d="M -6.350 12.650 L -5.500 12.800" fill="none" stroke="#000000" stroke-opacity="0.2" stroke-width="0.4" stroke-linecap="round" stroke-linejoin="round"/><path d="M -7.500 14.550 L -7.050 14.450" fill="none" stroke="#000000" stroke-opacity="0.2" stroke-width="0.4" stroke-linecap="round" stroke-linejoin="round"/><path d="M -7.050 14.450 L -6.350 12.650" fill="none" stroke="#000000" stroke-opacity="0.2" stroke-width="0.4" stroke-linecap="round" stroke-linejoin="round"/><path d="M -7.050 14.450 L -6.650 14.800" fill="none" stroke="#000000" stroke-opacity="0.2" stroke-width="0.4" stroke-linecap="round" stroke-linejoin="round"/><path d="M -6.650 14.800 L -6.150 14.700 L -5.550 15.100" fill="none" stroke="#000000" stroke-opacity="0.2" stroke-width="0.4" stroke-linecap="round" stroke-linejoin="round"/><path d="M -8.150 14.200 L -8.750 15.250" fill="none" stroke="#000000" stroke-opacity="0.2" stroke-width="0.4" stroke-linecap="round" stroke-linejoin="round"/><path d="M -9.000 14.300 L -8.000 14.300" fill="none" stroke="#000000" stroke-opacity="0.2" stroke-width="0.4" stroke-linecap="round" stroke-linejoin="round"/><path d="M -8.000 14.300 L -7.200 12.450" fill="none" stroke="#000000" stroke-opacity="0.2" stroke-width="0.4" stroke-linecap="round" stroke-linejoin="round"/><path d="M -7.200 12.450 L -8.000 12.550" fill="none" stroke="#000000" stroke-opacity="0.2" stroke-width="0.4" stroke-linecap="round" stroke-linejoin="round"/><path d="M -8.000 14.300 L -7.500 14.550" fill="none" stroke="#000000" stroke-opacity="0.2" stroke-width="0.4" stroke-linecap="round" stroke-linejoin="round"/><path d="M 9.400 0.650 L 9.050 0.850 Q 8.750 1.050 8.550 1.300" fill="none" stroke="#000000" stroke-opacity="0.2" stroke-width="0.4" stroke-linecap="round" stroke-linejoin="round"/><path d="M 8.550 1.300 L 9.150 1.800" fill="none" stroke="#000000" stroke-opacity="0.2" stroke-width="0.4" stroke-linecap="round" stroke-linejoin="round"/><path d="M 7.600 1.050 L 7.650 0.850 L 8.350 1.100 L 8.550 1.300" fill="none" stroke="#000000" stroke-opacity="0.2" stroke-width="0.4" stroke-linecap="round" stroke-linejoin="round"/><path d="M 6.100 9.600 Q 5.700 8.700 5.800 8.400 L 6.250 7.700 L 6.300 7.650" fill="none" stroke="#000000" stroke-opacity="0.2" stroke-width="0.4" stroke-linecap="round" stroke-linejoin="round"/><path d="M 7.950 9.300 L 7.650 9.300 L 7.050 9.450 L 6.400 9.800" fill="none" stroke="#000000" stroke-opacity="0.2" stroke-width="0.4" stroke-linecap="round" stroke-linejoin="round"/><path d="M 8.600 11.350 L 8.850 11.250" fill="none" stroke="#000000" stroke-opacity="0.2" stroke-width="0.4" stroke-linecap="round" stroke-linejoin="round"/><path d="M 7.950 11.700 L 8.600 11.350 L 9.950 12.900" fill="none" stroke="#000000" stroke-opacity="0.2" stroke-width="0.4" stroke-linecap="round" stroke-linejoin="round"/><path d="M 8.600 11.350 L 9.950 12.900" fill="none" stroke="#000000" stroke-opacity="0.2" stroke-width="0.4" stroke-linecap="round" stroke-linejoin="round"/><path d="M 9.950 12.900 L 10.450 12.750" fill="none" stroke="#000000" stroke-opacity="0.2" stroke-width="0.4" stroke-linecap="round" stroke-linejoin="round"/><path d="M 6.750 11.100 L 8.300 10.200" fill="none" stroke="#000000" stroke-opacity="0.2" stroke-width="0.4" stroke-linecap="round" stroke-linejoin="round"/><path d="M 7.150 12.300 L 7.950 11.700" fill="none" stroke="#000000" stroke-opacity="0.2" stroke-width="0.4" stroke-linecap="round" stroke-linejoin="round"/><path d="M 7.950 11.700 Q 8.750 12.150 9.050 13.400" fill="none" stroke="#000000" stroke-opacity="0.2" stroke-width="0.4" stroke-linecap="round" stroke-linejoin="round"/><path d="M 9.050 13.400 L 9.300 13.500" fill="none" stroke="#000000" stroke-opacity="0.2" stroke-width="0.4" stroke-linecap="round" stroke-linejoin="round"/><path d="M 9.300 13.500 L 9.600 13.150 L 9.850 13.200" fill="none" stroke="#000000" stroke-opacity="0.2" stroke-width="0.4" stroke-linecap="round" stroke-linejoin="round"/><path d="M 9.850 13.200 L 9.900 12.950" fill="none" stroke="#000000" stroke-opacity="0.2" stroke-width="0.4" stroke-linecap="round" stroke-linejoin="round"/><path d="M 9.950 12.950 L 9.950 12.900" fill="none" stroke="#000000" stroke-opacity="0.2" stroke-width="0.4" stroke-linecap="round" stroke-linejoin="round"/><path d="M 9.000 13.450 L 9.050 13.400" fill="none" stroke="#000000" stroke-opacity="0.2" stroke-width="0.4" stroke-linecap="round" stroke-linejoin="round"/><path d="M 9.000 13.400 L 9.000 13.450 L 8.600 13.950" fill="none" stroke="#000000" stroke-opacity="0.2" stroke-width="0.4" stroke-linecap="round" stroke-linejoin="round"/><path d="M 9.000 13.450 L 8.600 13.950" fill="none" stroke="#000000" stroke-opacity="0.2" stroke-width="0.4" stroke-linecap="round" stroke-linejoin="round"/><path d="M 9.300 13.500 L 9.950 13.750 L 10.100 13.950" fill="none" stroke="#000000" stroke-opacity="0.2" stroke-width="0.4" stroke-linecap="round" stroke-linejoin="round"/><path d="M 10.950 13.650 L 10.750 13.250 L 9.850 13.200" fill="none" stroke="#000000" stroke-opacity="0.2" stroke-width="0.4" stroke-linecap="round" stroke-linejoin="round"/><path d="M 10.250 12.900 L 11.250 13.050 L 11.450 13.450" fill="none" stroke="#000000" stroke-opacity="0.2" stroke-width="0.4" stroke-linecap="round" stroke-linejoin="round"/><path d="M 0.000 -17.500 L 0.050 -17.050" fill="none" stroke="#000000" stroke-opacity="0.2" stroke-width="0.4" stroke-linecap="round" stroke-linejoin="round"/></g></g></g>
</svg>
